<svg width="65" height="100" viewBox="0 0 65 100" fill="none" xmlns="http://www.w3.org/2000/svg">
<g clip-path="url(#clip0_202_2584)">
<path d="M4.50001 94.28C4.24383 94.1407 4.0309 93.9336 3.88452 93.6814C3.73813 93.4292 3.66392 93.1415 3.67001 92.85C3.66265 92.5517 3.73885 92.2573 3.89001 92C4.03843 91.7535 4.24872 91.5501 4.50001 91.41C4.76786 91.2683 5.06701 91.1961 5.37001 91.2C5.60648 91.1957 5.84132 91.24 6.06001 91.33C6.26422 91.4082 6.44618 91.5353 6.59001 91.7L6.29001 91.99C6.17503 91.8671 6.03549 91.7697 5.88043 91.7043C5.72538 91.6388 5.55829 91.6067 5.39001 91.61C5.16315 91.6061 4.93917 91.6613 4.74001 91.77C4.55324 91.8736 4.39781 92.0256 4.29001 92.21C4.18115 92.4018 4.12589 92.6194 4.13001 92.84C4.12477 93.0583 4.17871 93.274 4.2861 93.4641C4.39349 93.6542 4.55034 93.8118 4.74001 93.92C4.94083 94.0244 5.16369 94.0792 5.39001 94.08C5.55931 94.084 5.72747 94.0512 5.88285 93.9839C6.03824 93.9165 6.17716 93.8163 6.29001 93.69L6.59001 93.98C6.44678 94.1478 6.26488 94.2782 6.06001 94.36C5.83931 94.442 5.60542 94.4826 5.37001 94.48C5.06786 94.487 4.76877 94.4182 4.50001 94.28Z" fill="#D9D8D6"/>
<path d="M9.99999 94.06V94.46H7.70999V91.25H9.99999V91.65H8.16999V92.65H9.77999V93H8.16999V94L9.99999 94.06Z" fill="#D9D8D6"/>
<path d="M14 91.25V94.46H13.62L11.7 92.06V94.46H11.24V91.25H11.62L13.54 93.64V91.25H14Z" fill="#D9D8D6"/>
<path d="M16.06 91.65H15V91.25H17.66V91.65H16.56V94.46H16.1L16.06 91.65Z" fill="#D9D8D6"/>
<path d="M20.72 94.46L20.03 93.46H19V94.46H18.54V91.25H19.8C20.1586 91.2261 20.5138 91.3327 20.8 91.55C20.9196 91.6493 21.0144 91.7751 21.0769 91.9174C21.1394 92.0598 21.1679 92.2147 21.16 92.37C21.1695 92.5919 21.1049 92.8106 20.9763 92.9916C20.8477 93.1727 20.6626 93.3058 20.45 93.37L21.21 94.45L20.72 94.46ZM20.48 92.9C20.5566 92.8354 20.6172 92.7539 20.6571 92.662C20.697 92.57 20.7151 92.4701 20.71 92.37C20.7152 92.2684 20.6971 92.167 20.6573 92.0735C20.6174 91.9799 20.5568 91.8967 20.48 91.83C20.2829 91.6973 20.0471 91.6339 19.81 91.65H19V93.09H19.78C20.0289 93.1165 20.2787 93.0487 20.48 92.9Z" fill="#D9D8D6"/>
<path d="M22.94 94.28C22.6864 94.1431 22.4753 93.939 22.33 93.69C22.1854 93.4337 22.1095 93.1443 22.1095 92.85C22.1095 92.5557 22.1854 92.2664 22.33 92.01C22.4784 91.7635 22.6887 91.5601 22.94 91.42C23.2111 91.2821 23.5109 91.2103 23.815 91.2103C24.1191 91.2103 24.4189 91.2821 24.69 91.42C24.9413 91.5601 25.1516 91.7635 25.3 92.01C25.4494 92.2644 25.5255 92.5551 25.52 92.85C25.5261 93.1416 25.4519 93.4292 25.3055 93.6814C25.1591 93.9336 24.9462 94.1407 24.69 94.28C24.4189 94.4179 24.1191 94.4898 23.815 94.4898C23.5109 94.4898 23.2111 94.4179 22.94 94.28ZM24.45 93.93C24.6397 93.8218 24.7965 93.6643 24.9039 93.4741C25.0113 93.284 25.0652 93.0683 25.06 92.85C25.0641 92.6295 25.0089 92.4119 24.9 92.22C24.7922 92.0356 24.6368 91.8836 24.45 91.78C24.2585 91.6702 24.0407 91.6149 23.82 91.62C23.5961 91.6146 23.375 91.6699 23.18 91.78C22.9932 91.8836 22.8378 92.0356 22.73 92.22C22.6211 92.4119 22.5659 92.6295 22.57 92.85C22.5648 93.0683 22.6187 93.284 22.7261 93.4741C22.8335 93.6643 22.9903 93.8218 23.18 93.93C23.3768 94.0355 23.5967 94.0904 23.82 94.09C24.0401 94.0905 24.2568 94.0354 24.45 93.93Z" fill="#D9D8D6"/>
<path d="M28.37 91.25H28.83V94.46H28.37V91.25Z" fill="#D9D8D6"/>
<path d="M33 91.25V94.46H32.62L30.69 92.06V94.46H30.23V91.25H30.61L32.54 93.64V91.25H33Z" fill="#D9D8D6"/>
<path d="M35.08 91.65H34V91.25H36.65V91.65H35.55V94.46H35.1L35.08 91.65Z" fill="#D9D8D6"/>
<path d="M39.92 94.06V94.46H37.59V91.25H39.86V91.65H38.05V92.65H39.66V93H38.05V94L39.92 94.06Z" fill="#D9D8D6"/>
<path d="M43.33 92.83H43.77V94.09C43.6079 94.2248 43.4211 94.3267 43.22 94.39C43.0068 94.4588 42.784 94.4926 42.56 94.49C42.2537 94.4952 41.951 94.4229 41.68 94.28C41.4238 94.1407 41.2109 93.9336 41.0645 93.6814C40.9181 93.4292 40.8439 93.1415 40.85 92.85C40.8445 92.5551 40.9206 92.2644 41.07 92.01C41.2153 91.7611 41.4263 91.5569 41.68 91.42C41.955 91.2782 42.2606 91.2061 42.57 91.21C42.8097 91.2057 43.0478 91.25 43.27 91.34C43.4748 91.4171 43.657 91.5443 43.8 91.71L43.52 91.99C43.3091 91.795 43.043 91.6702 42.7583 91.6326C42.4736 91.5949 42.1842 91.6465 41.93 91.78C41.7363 91.8776 41.5761 92.0308 41.47 92.22C41.3611 92.4119 41.3059 92.6294 41.31 92.85C41.3049 93.0707 41.3602 93.2885 41.47 93.48C41.5782 93.67 41.7376 93.8259 41.93 93.93C42.1304 94.0355 42.3535 94.0904 42.58 94.09C42.8454 94.097 43.1068 94.0238 43.33 93.88V92.83Z" fill="#D9D8D6"/>
<path d="M47.26 94.46L46.56 93.46H45.56V94.46H45.1V91.25H46.35C46.7088 91.2243 47.0646 91.331 47.35 91.55C47.4696 91.6493 47.5644 91.7751 47.6269 91.9174C47.6894 92.0598 47.7179 92.2147 47.71 92.37C47.716 92.5935 47.6532 92.8134 47.53 93C47.3977 93.1792 47.2122 93.3122 47 93.38L47.77 94.46H47.26ZM47 92.9C47.0785 92.8369 47.1404 92.7558 47.1805 92.6634C47.2206 92.5711 47.2376 92.4704 47.23 92.37C47.2375 92.2682 47.2206 92.166 47.1806 92.0721C47.1405 91.9781 47.0786 91.8951 47 91.83C46.808 91.6943 46.5743 91.6305 46.34 91.65H45.56V93.09H46.34C46.5755 93.1065 46.8093 93.0392 47 92.9Z" fill="#D9D8D6"/>
<path d="M51 93.66H49.24L48.89 94.46H48.42L49.87 91.25H50.33L51.78 94.46H51.3L51 93.66ZM50.84 93.29L50.15 91.71L49.45 93.29H50.84Z" fill="#D9D8D6"/>
<path d="M52.72 91.25H54.07C54.3851 91.2413 54.6976 91.31 54.98 91.45C55.2345 91.5766 55.4465 91.7747 55.59 92.02C55.7346 92.2745 55.8107 92.5622 55.8107 92.855C55.8107 93.1477 55.7346 93.4355 55.59 93.69C55.4407 93.9306 55.2302 94.1273 54.98 94.26C54.6959 94.3953 54.3846 94.4637 54.07 94.46H52.72V91.25ZM54.05 94.06C54.2854 94.0648 54.5185 94.0134 54.73 93.91C54.9233 93.8166 55.0838 93.6666 55.19 93.48C55.295 93.2866 55.35 93.0701 55.35 92.85C55.35 92.6299 55.295 92.4134 55.19 92.22C55.0803 92.0386 54.9206 91.8928 54.73 91.8C54.5185 91.6966 54.2854 91.6452 54.05 91.65H53.18V94.06H54.05Z" fill="#D9D8D6"/>
<path d="M57.54 94.28C57.2864 94.1431 57.0753 93.939 56.93 93.69C56.7854 93.4337 56.7095 93.1443 56.7095 92.85C56.7095 92.5557 56.7854 92.2664 56.93 92.01C57.0784 91.7635 57.2887 91.5601 57.54 91.42C57.8111 91.2821 58.1109 91.2103 58.415 91.2103C58.7191 91.2103 59.0189 91.2821 59.29 91.42C59.5413 91.5601 59.7516 91.7635 59.9 92.01C60.0494 92.2644 60.1255 92.5551 60.12 92.85C60.1261 93.1416 60.0519 93.4292 59.9055 93.6814C59.7591 93.9336 59.5462 94.1407 59.29 94.28C59.0189 94.4179 58.7191 94.4898 58.415 94.4898C58.1109 94.4898 57.8111 94.4179 57.54 94.28ZM59.05 93.93C59.2397 93.8218 59.3965 93.6643 59.5039 93.4741C59.6113 93.284 59.6653 93.0683 59.66 92.85C59.6641 92.6295 59.6089 92.4119 59.5 92.22C59.3922 92.0356 59.2368 91.8836 59.05 91.78C58.8548 91.675 58.6367 91.62 58.415 91.62C58.1934 91.62 57.9752 91.675 57.78 91.78C57.5932 91.8836 57.4378 92.0356 57.33 92.22C57.2212 92.4119 57.1659 92.6295 57.17 92.85C57.1648 93.0683 57.2187 93.284 57.3261 93.4741C57.4335 93.6643 57.5903 93.8218 57.78 93.93C57.9752 94.035 58.1934 94.09 58.415 94.09C58.6367 94.09 58.8548 94.035 59.05 93.93Z" fill="#D9D8D6"/>
<path d="M0 96.75H1.35C1.66463 96.7463 1.97592 96.8147 2.26 96.95C2.51019 97.0827 2.72069 97.2794 2.87 97.52C3.01464 97.7745 3.09069 98.0622 3.09069 98.355C3.09069 98.6477 3.01464 98.9355 2.87 99.19C2.72648 99.4353 2.51448 99.6334 2.26 99.76C1.97755 99.9 1.66511 99.9686 1.35 99.96H0V96.75ZM1.33 99.56C1.562 99.5632 1.79151 99.5118 2 99.41C2.19294 99.3215 2.35617 99.1791 2.47 99C2.57503 98.8066 2.63004 98.5901 2.63004 98.37C2.63004 98.1499 2.57503 97.9334 2.47 97.74C2.36274 97.5481 2.1985 97.3944 2 97.3C1.78849 97.1966 1.55537 97.1452 1.32 97.15H0.46V99.56H1.33Z" fill="#D9D8D6"/>
<path d="M6.58 99.56V99.96H4.25V96.75H6.51V97.15H4.71V98.15H6.32V98.54H4.71V99.54L6.58 99.56Z" fill="#D9D8D6"/>
<path d="M11.7 98.34H12.14V99.59C11.973 99.7229 11.7832 99.8246 11.58 99.89C11.3674 99.962 11.1445 99.9992 10.92 100C10.617 100.004 10.3178 99.9317 10.05 99.79C9.79559 99.6505 9.58191 99.4472 9.43 99.2C9.28519 98.9437 9.20938 98.6543 9.21 98.36C9.20902 98.0624 9.28479 97.7697 9.43 97.51C9.57948 97.2634 9.79399 97.0627 10.05 96.93C10.321 96.787 10.6237 96.7148 10.93 96.72C11.1687 96.7166 11.406 96.7572 11.63 96.84C11.8339 96.9243 12.0178 97.0503 12.17 97.21L11.88 97.5C11.7579 97.3781 11.6129 97.2818 11.4532 97.2165C11.2935 97.1513 11.1225 97.1185 10.95 97.12C10.7205 97.1207 10.4944 97.1755 10.29 97.28C10.1032 97.3836 9.9478 97.5356 9.84 97.72C9.72854 97.9131 9.66985 98.1321 9.66985 98.355C9.66985 98.5779 9.72854 98.7969 9.84 98.99C9.9478 99.1744 10.1032 99.3264 10.29 99.43C10.4923 99.54 10.7198 99.5951 10.95 99.59C11.2135 99.5927 11.4728 99.5236 11.7 99.39V98.34Z" fill="#D9D8D6"/>
<path d="M15.8 99.56V99.96H13.47V96.75H15.74V97.15H13.93V98.15H15.54V98.54H13.93V99.54L15.8 99.56Z" fill="#D9D8D6"/>
<path d="M17.24 99.89C17.0461 99.8288 16.8661 99.7303 16.71 99.6L16.88 99.24C17.0179 99.3593 17.1774 99.451 17.35 99.51C17.5392 99.578 17.739 99.6118 17.94 99.61C18.1494 99.6238 18.3583 99.575 18.54 99.47C18.6014 99.4322 18.6521 99.3792 18.6871 99.3162C18.7222 99.2531 18.7404 99.1821 18.74 99.11C18.7407 99.0614 18.7313 99.0132 18.7124 98.9684C18.6934 98.9236 18.6654 98.8833 18.63 98.85C18.5555 98.774 18.4624 98.7189 18.36 98.69C18.2127 98.6378 18.0624 98.5943 17.91 98.56C17.7121 98.5203 17.518 98.4635 17.33 98.39C17.1827 98.3333 17.052 98.2405 16.95 98.12C16.8354 97.9835 16.778 97.8079 16.79 97.63C16.7903 97.4662 16.839 97.3062 16.93 97.17C17.0288 97.0198 17.1722 96.9044 17.34 96.84C17.556 96.7536 17.7875 96.7128 18.02 96.72C18.209 96.718 18.3973 96.7416 18.58 96.79C18.7472 96.8335 18.906 96.9044 19.05 97L18.9 97.37C18.7668 97.2834 18.622 97.2161 18.47 97.17C18.3233 97.1304 18.172 97.1103 18.02 97.11C17.8136 97.0945 17.6074 97.1434 17.43 97.25C17.3697 97.2883 17.3205 97.3416 17.2872 97.4047C17.2538 97.4679 17.2376 97.5386 17.24 97.61C17.2391 97.6601 17.2484 97.7099 17.2673 97.7563C17.2862 97.8027 17.3143 97.8448 17.35 97.88C17.4245 97.956 17.5176 98.0111 17.62 98.04C17.7671 98.0901 17.9175 98.1301 18.07 98.16C18.2671 98.207 18.4609 98.2672 18.65 98.34C18.7945 98.4018 18.9241 98.4939 19.03 98.61C19.1369 98.7463 19.1902 98.917 19.18 99.09C19.1833 99.2528 19.138 99.413 19.05 99.55C18.9471 99.7004 18.8005 99.8156 18.63 99.88C18.4102 99.9653 18.1757 100.006 17.94 100C17.7025 99.9985 17.4665 99.9614 17.24 99.89Z" fill="#D9D8D6"/>
<path d="M20.91 97.15H19.8V96.75H22.46V97.15H21.36V100H20.91V97.15Z" fill="#D9D8D6"/>
<path d="M25.3 99.16H23.6L23.24 99.96H22.77L24.23 96.75H24.68L26.14 100H25.66L25.3 99.16ZM24.59 96.43C24.5196 96.3889 24.4527 96.342 24.39 96.29L24.27 96.2H24.17C24.1371 96.1975 24.1042 96.2035 24.0744 96.2175C24.0446 96.2315 24.019 96.2531 24 96.28C23.9591 96.3392 23.9349 96.4083 23.93 96.48H23.69C23.6807 96.335 23.7272 96.1919 23.82 96.08C23.8539 96.0293 23.9001 95.9879 23.9543 95.9599C24.0085 95.932 24.069 95.9182 24.13 95.92C24.1957 95.9039 24.2643 95.9039 24.33 95.92C24.3986 95.959 24.4624 96.006 24.52 96.06L24.65 96.16C24.6826 96.17 24.7174 96.17 24.75 96.16C24.7809 96.1593 24.8113 96.1517 24.8389 96.1379C24.8666 96.1241 24.8909 96.1043 24.91 96.08C24.9569 96.0241 24.9818 95.953 24.98 95.88H25.23C25.23 96.0237 25.1845 96.1638 25.1 96.28C25.0612 96.3273 25.0123 96.3653 24.957 96.3913C24.9016 96.4172 24.8411 96.4305 24.78 96.43C24.7178 96.447 24.6522 96.447 24.59 96.43ZM25.14 98.79L24.45 97.22L23.76 98.79H25.14Z" fill="#D9D8D6"/>
<path d="M27.6 99.79C27.3524 99.6485 27.1456 99.4452 27 99.2C26.8554 98.9436 26.7794 98.6543 26.7794 98.36C26.7794 98.0657 26.8554 97.7764 27 97.52C27.1453 97.2711 27.3563 97.0669 27.61 96.93C27.8813 96.7879 28.1837 96.7157 28.49 96.72C28.793 96.7161 29.0921 96.7883 29.36 96.93C29.6136 97.0669 29.8247 97.2711 29.97 97.52C30.1146 97.7764 30.1905 98.0657 30.1905 98.36C30.1905 98.6543 30.1146 98.9436 29.97 99.2C29.8216 99.4465 29.6113 99.6499 29.36 99.79C29.0921 99.9317 28.793 100.004 28.49 100C28.1804 100.006 27.8743 99.9338 27.6 99.79ZM29.11 99.43C29.2968 99.3264 29.4522 99.1744 29.56 98.99C29.6688 98.7981 29.7241 98.5805 29.72 98.36C29.7252 98.1417 29.6713 97.926 29.5639 97.7359C29.4565 97.5458 29.2997 97.3882 29.11 97.28C28.9168 97.1746 28.7001 97.1196 28.48 97.12C28.2567 97.1196 28.0368 97.1746 27.84 97.28C27.6503 97.3882 27.4935 97.5458 27.3861 97.7359C27.2787 97.926 27.2247 98.1417 27.23 98.36C27.2259 98.5805 27.2811 98.7981 27.39 98.99C27.4978 99.1744 27.6532 99.3264 27.84 99.43C28.035 99.5401 28.2561 99.5954 28.48 99.59C28.7006 99.5951 28.9185 99.5398 29.11 99.43Z" fill="#D9D8D6"/>
<path d="M35.08 99.16H33.37L33 100H32.53L34 96.75H34.46L35.92 100H35.43L35.08 99.16ZM34.92 98.79L34.23 97.22L33.53 98.79H34.92Z" fill="#D9D8D6"/>
<path d="M39.83 100V97.62L38.67 99.57H38.46L37.3 97.64V100H36.86V96.75H37.24L38.57 99L39.89 96.74H40.26V100H39.83Z" fill="#D9D8D6"/>
<path d="M44.29 98.58C44.4017 98.7297 44.4582 98.9134 44.45 99.1C44.4562 99.2241 44.4311 99.3478 44.3769 99.4597C44.3227 99.5715 44.2413 99.6679 44.14 99.74C43.863 99.9056 43.5419 99.9823 43.22 99.96H41.69V96.75H43.13C43.4392 96.7391 43.7438 96.8266 44 97C44.0964 97.0691 44.1742 97.1609 44.2265 97.2674C44.2789 97.3738 44.3041 97.4915 44.3 97.61C44.3096 97.7594 44.2736 97.9082 44.1968 98.0368C44.1201 98.1653 44.0061 98.2676 43.87 98.33C44.034 98.3641 44.1818 98.4521 44.29 98.58ZM42.15 97.12V98.12H43.09C43.2792 98.1347 43.4682 98.0892 43.63 97.99C43.6926 97.9493 43.7432 97.8926 43.7766 97.8258C43.81 97.759 43.825 97.6845 43.82 97.61C43.8247 97.5341 43.8097 97.4583 43.7764 97.39C43.7431 97.3216 43.6927 97.2631 43.63 97.22C43.4659 97.1265 43.2787 97.0815 43.09 97.09L42.15 97.12ZM43.79 99.46C43.856 99.4173 43.9094 99.3577 43.9446 99.2873C43.9798 99.217 43.9955 99.1385 43.99 99.06C43.99 98.7 43.73 98.52 43.21 98.52H42.15V99.59H43.21C43.412 99.6064 43.6143 99.5611 43.79 99.46Z" fill="#D9D8D6"/>
<path d="M45.62 96.75H46.08V100H45.62V96.75Z" fill="#D9D8D6"/>
<path d="M49.83 99.56V99.96H47.5V96.75H49.77V97.15H48V98.15H49.61V98.54H48V99.54L49.83 99.56Z" fill="#D9D8D6"/>
<path d="M53.8 96.75V100H53.42L51.49 97.61V100H51V96.75H51.37L53.3 99.15V96.75H53.8Z" fill="#D9D8D6"/>
<path d="M55.86 97.15H54.76V96.75H57.41V97.15H56.31V100H55.86V97.15Z" fill="#D9D8D6"/>
<path d="M60.26 99.16H58.55L58.2 99.96H57.72L59.18 96.75H59.63L61.09 100H60.61L60.26 99.16ZM60.1 98.79L59.4 97.22L58.71 98.79H60.1Z" fill="#D9D8D6"/>
<path d="M62 96.75H62.46V99.56H64.2V99.96H62V96.75Z" fill="#D9D8D6"/>
<path d="M1.24718e-05 76.81C-0.0274207 75.7357 0.167141 74.6674 0.571524 73.6717C0.975907 72.6761 1.58141 71.7746 2.35015 71.0237C3.11889 70.2728 4.03432 69.6886 5.03918 69.3077C6.04403 68.9268 7.11668 68.7574 8.19001 68.81C9.96178 68.726 11.7094 69.2477 13.1452 70.2891C14.581 71.3306 15.6196 72.8298 16.09 74.54C16.1041 74.588 16.1067 74.6385 16.0977 74.6877C16.0887 74.7368 16.0683 74.7832 16.0382 74.823C16.0081 74.8629 15.969 74.8951 15.9242 74.9172C15.8793 74.9392 15.83 74.9505 15.78 74.95H13.9C13.4331 74.9444 12.9731 74.8358 12.553 74.6318C12.133 74.4278 11.7631 74.1335 11.47 73.77C11.0632 73.3037 10.558 72.9336 9.99076 72.6863C9.42354 72.439 8.80849 72.3207 8.19001 72.34C7.00449 72.34 5.86753 72.8109 5.02924 73.6492C4.19096 74.4875 3.72001 75.6245 3.72001 76.81C3.72001 77.9955 4.19096 79.1325 5.02924 79.9708C5.86753 80.8091 7.00449 81.28 8.19001 81.28C8.80849 81.2993 9.42354 81.181 9.99076 80.9337C10.558 80.6864 11.0632 80.3163 11.47 79.85C11.7631 79.4865 12.133 79.1922 12.553 78.9882C12.9731 78.7842 13.4331 78.6756 13.9 78.67H15.78C15.83 78.6695 15.8793 78.6808 15.9242 78.7028C15.969 78.7249 16.0081 78.7571 16.0382 78.797C16.0683 78.8368 16.0887 78.8832 16.0977 78.9323C16.1067 78.9815 16.1041 79.0321 16.09 79.08C15.6196 80.7903 14.581 82.2894 13.1452 83.3309C11.7094 84.3723 9.96178 84.894 8.19001 84.81C7.11668 84.8626 6.04403 84.6932 5.03918 84.3123C4.03432 83.9314 3.11889 83.3472 2.35015 82.5963C1.58141 81.8454 0.975907 80.9439 0.571524 79.9483C0.167141 78.9527 -0.0274207 77.8843 1.24718e-05 76.81Z" fill="#D9D8D6"/>
<path d="M24.1 69.11H24.4C24.4841 69.1125 24.564 69.147 24.6235 69.2065C24.683 69.266 24.7175 69.3459 24.72 69.43V81.3C24.72 82.1487 24.3829 82.9626 23.7827 83.5627C23.1826 84.1628 22.3687 84.5 21.52 84.5H21.22C21.178 84.5 21.1364 84.4917 21.0975 84.4756C21.0587 84.4595 21.0234 84.436 20.9937 84.4063C20.964 84.3765 20.9404 84.3413 20.9244 84.3024C20.9083 84.2636 20.9 84.222 20.9 84.18V72.31C20.9026 71.4621 21.2406 70.6497 21.8402 70.0502C22.4397 69.4506 23.2521 69.1126 24.1 69.11Z" fill="#D9D8D6"/>
<path d="M29.52 76.81C29.4926 75.7366 29.6869 74.6691 30.0907 73.6742C30.4945 72.6793 31.0991 71.7783 31.8667 71.0275C32.6344 70.2768 33.5486 69.6924 34.5522 69.3108C35.5559 68.9293 36.6275 68.7588 37.7 68.81C39.34 68.7408 40.9606 69.1854 42.3357 70.0818C43.7107 70.9782 44.7715 72.2816 45.37 73.81C45.3897 73.8588 45.3971 73.9118 45.3915 73.9642C45.3859 74.0166 45.3674 74.0668 45.3377 74.1103C45.3081 74.1538 45.2681 74.1894 45.2214 74.2137C45.1747 74.2381 45.1227 74.2506 45.07 74.25H42.35C41.7591 74.2358 41.198 73.9877 40.79 73.56C40.2574 73.0845 39.6181 72.7445 38.9261 72.5687C38.2342 72.3929 37.5101 72.3866 36.8152 72.5502C36.1202 72.7139 35.475 73.0427 34.9343 73.5088C34.3935 73.9748 33.973 74.5645 33.7086 75.2276C33.4442 75.8908 33.3436 76.6079 33.4154 77.3182C33.4871 78.0285 33.7291 78.7111 34.1208 79.3079C34.5125 79.9048 35.0423 80.3985 35.6654 80.747C36.2885 81.0955 36.9864 81.2886 37.7 81.31C38.519 81.3782 39.3394 81.197 40.0534 80.79C40.7673 80.383 41.3414 79.7695 41.7 79.03H39.5C39.1402 79.03 38.7839 78.9591 38.4514 78.8214C38.119 78.6837 37.8169 78.4819 37.5625 78.2275C37.3081 77.973 37.1063 77.671 36.9686 77.3386C36.8309 77.0061 36.76 76.6498 36.76 76.29C36.76 76.2051 36.7937 76.1237 36.8537 76.0637C36.9137 76.0037 36.9951 75.97 37.08 75.97H45.55C45.6349 75.97 45.7163 76.0037 45.7763 76.0637C45.8363 76.1237 45.87 76.2051 45.87 76.29V77.64C45.7111 79.6666 44.7693 81.5518 43.2442 82.8958C41.7191 84.2399 39.7305 84.9372 37.7 84.84C36.6249 84.8915 35.5507 84.7201 34.545 84.3368C33.5392 83.9534 32.6236 83.3663 31.8555 82.6123C31.0874 81.8583 30.4834 80.9537 30.0815 79.9552C29.6796 78.9567 29.4884 77.8859 29.52 76.81Z" fill="#D9D8D6"/>
<path d="M50.67 75.56C50.67 71.37 53.05 68.81 57.42 68.81C61.79 68.81 64.23 71.37 64.23 75.56V84.18C64.23 84.2649 64.1963 84.3463 64.1363 84.4063C64.0762 84.4663 63.9949 84.5 63.91 84.5H63.61C62.7613 84.5 61.9474 84.1629 61.3472 83.5627C60.7471 82.9626 60.41 82.1487 60.41 81.3V80.13H54.41V81.3C54.41 82.1487 54.0728 82.9626 53.4727 83.5627C52.8726 84.1629 52.0587 84.5 51.21 84.5H51C50.9151 84.5 50.8337 84.4663 50.7737 84.4063C50.7137 84.3463 50.68 84.2649 50.68 84.18L50.67 75.56ZM60.09 76.83C60.1749 76.83 60.2562 76.7963 60.3163 76.7363C60.3763 76.6763 60.41 76.5949 60.41 76.51V75.51C60.41 73.39 59.5 72.29 57.41 72.29C55.32 72.29 54.41 73.39 54.41 75.51V76.51C54.41 76.5949 54.4437 76.6763 54.5037 76.7363C54.5637 76.7963 54.6451 76.83 54.73 76.83H60.09Z" fill="#D9D8D6"/>
<path d="M54.3 11.65L35.88 1C34.7356 0.338126 33.437 -0.010376 32.115 -0.010376C30.793 -0.010376 29.4944 0.338126 28.35 1L9.93 11.65C8.78522 12.3109 7.83431 13.2612 7.17263 14.4056C6.51094 15.5499 6.16173 16.8481 6.16 18.17V39.44C6.15469 40.7687 6.50057 42.0751 7.16261 43.2271C7.82465 44.3791 8.77934 45.3357 9.93 46L28.35 56.6C29.4944 57.2619 30.793 57.6104 32.115 57.6104C33.437 57.6104 34.7356 57.2619 35.88 56.6L54.3 46C55.4434 45.3375 56.3932 44.3869 57.0547 43.2429C57.7162 42.0989 58.0663 40.8015 58.07 39.48V18.17C58.0663 16.8485 57.7162 15.5511 57.0547 14.4071C56.3932 13.2631 55.4434 12.3125 54.3 11.65ZM53 13.89C53.3416 14.0867 53.6574 14.3252 53.94 14.6H43.3C42.813 14.6 42.3306 14.6951 41.88 14.88H36.88C36.8312 14.3429 36.689 13.8183 36.46 13.33L44.26 8.82L53 13.89ZM43.36 8.32L36 12.58C35.6887 12.1404 35.3069 11.7552 34.87 11.44L38.35 5.44L43.36 8.32ZM32.54 2.61C33.2437 2.68286 33.9247 2.90078 34.54 3.25L37.54 4.99L34.07 10.99C33.576 10.7571 33.0443 10.6149 32.5 10.57L32.54 2.61ZM34 11.94L34.11 12.01C34.6601 12.345 35.1174 12.8126 35.44 13.37C35.7084 13.8338 35.8786 14.3477 35.94 14.88H28.25C28.3157 14.2935 28.5136 13.7296 28.8289 13.2308C29.1442 12.7319 29.5685 12.3111 30.07 12L30.18 11.94C30.7646 11.5957 31.4315 11.416 32.11 11.42C32.7746 11.4251 33.4263 11.6044 34 11.94ZM29.6 3.25C30.2165 2.90365 30.8969 2.68593 31.6 2.61V10.61C31.0604 10.6563 30.5327 10.795 30.04 11.02L26.65 5L29.6 3.25ZM20.87 8.32L24.33 6.32L25.9 5.41L29.38 11.41C28.9354 11.7194 28.5494 12.1054 28.24 12.55L20.87 8.32ZM11.22 13.89L20 8.82L20.22 8.94L27.8 13.33C27.5786 13.8205 27.4401 14.3442 27.39 14.88H10C10.3557 14.4918 10.7668 14.1582 11.22 13.89ZM8.75 18.17C8.75067 17.3216 8.97117 16.4878 9.39 15.75H40.64L35.82 20.57C35.1184 20.3725 34.446 20.0833 33.82 19.71C32.5307 18.9107 31.0365 18.5041 29.52 18.54C28.0002 18.5028 26.5024 18.9093 25.21 19.71C24.0439 20.4339 22.6921 20.8023 21.32 20.77C19.9479 20.8023 18.5961 20.4339 17.43 19.71C16.1407 18.9107 14.6465 18.5041 13.13 18.54C11.6101 18.5028 10.1124 18.9093 8.82 19.71L8.75 18.17ZM8.75 20.7L9.19 20.46C10.3606 19.7379 11.715 19.3698 13.09 19.4C14.4687 19.3655 15.8275 19.7339 17 20.46C18.2894 21.258 19.7842 21.6612 21.3 21.62C22.8158 21.6612 24.3106 21.258 25.6 20.46C26.7706 19.7379 28.125 19.3698 29.5 19.4C30.8719 19.3694 32.2232 19.7377 33.39 20.46C33.9478 20.7887 34.5375 21.0601 35.15 21.27L35.08 21.33L30.33 26.08C30.07 26.08 29.8 26.08 29.5 26.08C27.9818 26.0455 26.4858 26.4481 25.19 27.24C24.0254 27.9672 22.6726 28.3358 21.3 28.3C19.9274 28.3358 18.5746 27.9672 17.41 27.24C16.1174 26.4495 14.6249 26.0468 13.11 26.08C11.5918 26.0455 10.0958 26.4481 8.8 27.24L8.75 20.7ZM8.75 28.2L9.19 28C10.3575 27.2709 11.7141 26.9022 13.09 26.94C14.4693 26.9002 15.8296 27.269 17 28C18.2913 28.7937 19.7847 29.1966 21.3 29.16C22.8085 29.1927 24.2945 28.79 25.58 28C26.7475 27.2709 28.1041 26.9022 29.48 26.94L23.85 32.56L20.63 35.78C19.4844 35.7172 18.3717 35.3738 17.39 34.78C16.0974 33.9895 14.6049 33.5868 13.09 33.62C11.5718 33.5855 10.0758 33.9881 8.78 34.78L8.75 28.2ZM9.23 41.55C8.91476 40.8912 8.75076 40.1703 8.75 39.44V35.71L9.19 35.48C10.3575 34.7509 11.7141 34.3822 13.09 34.42C14.4693 34.3802 15.8296 34.749 17 35.48C17.8834 36.0067 18.8563 36.366 19.87 36.54L19.81 36.6L18.2 38.19L15.47 40.91C15.0415 41.294 14.4946 41.5199 13.92 41.55H9.23ZM34.58 54.35C33.8319 54.7914 32.9786 55.0228 32.11 55.02C31.2417 55.0204 30.3891 54.7891 29.64 54.35L23.46 50.79H40.77L34.58 54.35ZM42.25 49.92H22L21.34 49.54L20.1 48.83H23.21C24.1779 48.8295 25.1059 48.4446 25.79 47.76L28.57 45H50.88L42.25 49.92ZM55.47 39.44C55.4703 40.3075 55.2422 41.1597 54.8086 41.911C54.375 42.6624 53.7512 43.2863 53 43.72L52.37 44.08H29.43L34.34 39.18L34.41 39.1H55.47V39.44ZM55.47 38.24H35.27L40.17 33.34L40.25 33.27H55.47V38.24ZM55.47 32.41H41.11C42.86 30.65 44.55 29 46 27.5C46.0208 27.4742 46.0442 27.4507 46.07 27.43H55.45L55.47 32.41ZM55.47 26.57H47L51.13 22.43C51.5357 22.071 52.0582 21.8719 52.6 21.87H55.52L55.47 26.57ZM55.47 20.44H52.55C51.6584 20.4425 50.7981 20.7695 50.13 21.36L45 26.49L39.16 32.33C37.21 34.33 35.16 36.33 33.32 38.17L24.74 46.75C24.3244 47.1602 23.7639 47.3901 23.18 47.39H17.59L11.22 43.72C10.858 43.5185 10.5222 43.2734 10.22 42.99H13.88C14.8143 42.9625 15.7094 42.6087 16.41 41.99L19.16 39.25L20.74 37.66L24.81 33.6L31.08 27.34L36.01 22.4L41.68 16.73C41.884 16.5019 42.1336 16.3191 42.4126 16.1933C42.6917 16.0676 42.994 16.0017 43.3 16H55C55.3164 16.669 55.4803 17.3999 55.48 18.14L55.47 20.44Z" fill="#D9D8D6"/>
</g>
<defs>
<clipPath id="clip0_202_2584">
<rect width="64.23" height="100" fill="white"/>
</clipPath>
</defs>
</svg>
