<svg width="85" height="95" viewBox="0 0 85 95" fill="none" xmlns="http://www.w3.org/2000/svg">
<g clip-path="url(#clip0_202_2085)">
<path d="M78.8268 19.3898L48.665 1.95095C46.7911 0.867164 44.6647 0.296509 42.5 0.296509C40.3353 0.296509 38.2088 0.867164 36.335 1.95095L6.17316 19.3898C4.29864 20.472 2.74158 22.0281 1.6581 23.9019C0.574618 25.7757 0.00279997 27.9014 -2.34435e-05 30.066V64.8945C-0.00871836 67.0701 0.557637 69.2094 1.64169 71.0957C2.72575 72.982 4.289 74.5484 6.17316 75.6362L36.335 92.9931C38.2088 94.0769 40.3353 94.6476 42.5 94.6476C44.6647 94.6476 46.7911 94.0769 48.665 92.9931L78.8268 75.6362C80.6991 74.5514 82.2543 72.9948 83.3375 71.1215C84.4206 69.2483 84.9939 67.1239 85 64.96V30.066C84.9939 27.9021 84.4206 25.7777 83.3375 23.9044C82.2543 22.0312 80.6991 20.4746 78.8268 19.3898ZM76.6981 23.0577C77.2575 23.3797 77.7746 23.7702 78.2373 24.2203H60.8148C60.0173 24.2202 59.2275 24.376 58.4897 24.6787H50.3024C50.2224 23.7992 49.9897 22.9403 49.6147 22.1407L62.3868 14.7558L76.6981 23.0577ZM60.9131 13.9371L48.8287 20.9126C48.319 20.1927 47.6938 19.562 46.9784 19.0459L52.6767 9.22123L60.9131 13.9371ZM43.1959 4.58725C44.3482 4.70655 45.4633 5.06338 46.4708 5.63521L51.3831 8.48438L45.8486 18.3254C45.0397 17.9441 44.169 17.7112 43.2778 17.6377L43.1959 4.58725ZM45.6521 19.8646L45.8486 19.9629C46.7493 20.5114 47.4981 21.277 48.0264 22.1898C48.4658 22.9492 48.7445 23.7908 48.8451 24.6624H36.1712C36.2812 23.7049 36.6064 22.7848 37.1225 21.971C37.6386 21.1571 38.3322 20.4706 39.1514 19.9629H39.2988C40.2809 19.3501 41.416 19.0266 42.5737 19.0295C43.6549 19.0357 44.7159 19.3235 45.6521 19.8646ZM38.4473 5.63521C39.4568 5.06808 40.5709 4.71157 41.7222 4.58725V17.6868C40.8851 17.7667 40.0665 17.9824 39.2988 18.3254L33.5513 8.50075L38.4473 5.63521ZM24.0869 13.9371L29.7524 10.6622L32.3232 9.1721L38.0216 18.9968C37.2936 19.5035 36.6616 20.1356 36.1549 20.8635L24.0869 13.9371ZM8.28547 23.0577L22.6623 14.7558L23.0225 14.9523L35.4344 22.1407C35.0719 22.9438 34.8451 23.8015 34.763 24.6787H6.28778C6.87027 24.043 7.54343 23.4968 8.28547 23.0577ZM4.24097 30.066C4.24207 28.6767 4.60313 27.3115 5.28894 26.1033H56.4592L48.5667 33.9958C47.4179 33.6724 46.3168 33.199 45.2918 32.5876C43.1807 31.2788 40.7341 30.6131 38.2508 30.6718C35.7344 30.5947 33.2512 31.2611 31.1115 32.5876C29.2021 33.773 26.9886 34.3762 24.7418 34.3233C22.495 34.3762 20.2815 33.773 18.3722 32.5876C16.261 31.2788 13.8144 30.6131 11.3311 30.6718C8.84244 30.6108 6.38994 31.2766 4.27372 32.5876L4.24097 30.066ZM4.24097 34.2087L4.91232 33.8157C6.82905 32.6333 9.04684 32.0306 11.2984 32.08C13.5448 32.03 15.7575 32.6329 17.6681 33.8157C19.7794 35.1224 22.227 35.7826 24.7091 35.7152C27.1912 35.7826 29.6387 35.1224 31.7501 33.8157C33.6668 32.6333 35.8846 32.0306 38.1362 32.08C40.3826 32.03 42.5953 32.6329 44.5059 33.8157C45.4193 34.354 46.3848 34.7984 47.3878 35.1421L47.2731 35.2403L39.4953 43.0182C39.0695 43.0182 38.6274 43.0182 38.1362 43.0182C35.6662 42.9532 33.229 43.5951 31.1115 44.8685C29.2045 46.0592 26.9893 46.6628 24.7418 46.6042C22.4943 46.6628 20.2792 46.0592 18.3722 44.8685C16.2555 43.574 13.8116 42.9148 11.3311 42.9691C8.84521 42.9125 6.39544 43.5719 4.27372 44.8685L4.24097 34.2087ZM4.24097 46.4896L4.91232 46.1621C6.82406 44.9682 9.04534 44.3645 11.2984 44.4264C13.5625 44.358 15.7961 44.962 17.7172 46.1621C19.8316 47.4617 22.277 48.1214 24.7582 48.0615C27.2394 48.1214 29.6848 47.4617 31.7992 46.1621C33.711 44.9682 35.9323 44.3645 38.1853 44.4264L28.9665 53.6289L23.6939 58.9014C21.818 58.7987 19.9961 58.2364 18.3885 57.264C16.2719 55.9695 13.828 55.3103 11.3475 55.3646C8.86158 55.308 6.41182 55.9674 4.29009 57.264L4.24097 46.4896ZM5.02695 68.3495C4.51075 67.2708 4.24221 66.0904 4.24097 64.8945V58.7868L4.91232 58.4102C6.82406 57.2164 9.04534 56.6126 11.2984 56.6745C13.5459 56.6159 15.761 57.2195 17.6681 58.4102C19.1146 59.2726 20.7077 59.861 22.3675 60.1459L22.2693 60.2441L19.6494 62.8477L15.2446 67.3016C14.5431 67.9304 13.6474 68.3002 12.7066 68.3495H5.02695ZM46.5363 89.3089C45.332 90.0061 43.9652 90.3732 42.5737 90.3732C41.1519 90.3738 39.7557 89.9951 38.5292 89.2761L28.3279 83.4796H56.6557L46.5363 89.3089ZM59.0955 82.055H25.8881L24.8073 81.4327L22.7769 80.2702H27.8366C29.4214 80.2693 30.941 79.6391 32.0612 78.5181L36.6952 73.9987H73.2267L59.0955 82.055ZM80.7426 64.8945C80.7431 66.3149 80.3696 67.7105 79.6596 68.9407C78.9497 70.171 77.9282 71.1926 76.6981 71.9028L75.6665 72.4923H38.1034L46.1433 64.4688L46.2579 64.3378H80.7426V64.8945ZM80.7426 62.9296H47.6661L55.6896 54.9061L55.8206 54.7914H80.7426V62.9296ZM80.7426 53.3832H57.3107L65.3506 45.3434C65.3846 45.3011 65.423 45.2627 65.4652 45.2287H80.8245L80.7426 53.3832ZM80.7426 43.8205H66.7915L73.5542 37.0415C74.2185 36.4536 75.0742 36.1276 75.9613 36.1245H80.7426V43.8205ZM80.7426 33.783H75.9613C74.5012 33.7871 73.0927 34.3226 71.9986 35.2894L63.5985 43.6895C60.7657 46.5059 57.4581 49.83 54.0358 53.2522L44.4731 62.8149L30.4238 76.8643C29.7433 77.5359 28.8255 77.9125 27.8694 77.9122H18.716L8.28547 71.9028C7.69278 71.5729 7.14285 71.1714 6.64802 70.7075H12.7066C14.2364 70.6624 15.7021 70.0831 16.8493 69.07L21.3523 64.5834L23.9395 61.9798L30.6039 55.3318L40.9362 44.9995L49.0088 36.9105L58.2932 27.6262C58.6193 27.2834 59.01 27.0085 59.4427 26.8174C59.8755 26.6263 60.3419 26.5228 60.8148 26.5127H79.9566C80.4747 27.6082 80.7432 28.805 80.7426 30.0168V33.783Z" fill="white"/>
</g>
<defs>
<clipPath id="clip0_202_2085">
<rect width="85" height="94.3335" fill="white" transform="translate(0 0.313477)"/>
</clipPath>
</defs>
</svg>
