<svg width="85" height="95" viewBox="0 0 85 95" fill="none" xmlns="http://www.w3.org/2000/svg">
<g clip-path="url(#clip0_202_2109)">
<path d="M78.8268 19.3117L48.665 1.87283C46.7911 0.789039 44.6647 0.218384 42.5 0.218384C40.3353 0.218384 38.2088 0.789039 36.335 1.87283L6.17316 19.3117C4.29864 20.3939 2.74158 21.95 1.6581 23.8238C0.574618 25.6976 0.00279997 27.8233 -2.34435e-05 29.9878V64.8164C-0.00871836 66.992 0.557637 69.1313 1.64169 71.0176C2.72575 72.9039 4.289 74.4703 6.17316 75.5581L36.335 92.915C38.2088 93.9988 40.3353 94.5695 42.5 94.5695C44.6647 94.5695 46.7911 93.9988 48.665 92.915L78.8268 75.5581C80.6991 74.4733 82.2543 72.9167 83.3375 71.0434C84.4206 69.1702 84.9939 67.0457 85 64.8819V29.9878C84.9939 27.824 84.4206 25.6995 83.3375 23.8263C82.2543 21.953 80.6991 20.3964 78.8268 19.3117ZM76.6981 22.9795C77.2575 23.3016 77.7746 23.6921 78.2373 24.1421H60.8148C60.0173 24.1421 59.2275 24.2979 58.4897 24.6006H50.3024C50.2224 23.7211 49.9897 22.8622 49.6147 22.0626L62.3868 14.6777L76.6981 22.9795ZM60.9131 13.859L48.8287 20.8345C48.319 20.1146 47.6938 19.4839 46.9784 18.9678L52.6767 9.1431L60.9131 13.859ZM43.1959 4.50912C44.3482 4.62843 45.4633 4.98525 46.4708 5.55709L51.3831 8.40625L45.8486 18.2473C45.0397 17.866 44.169 17.633 43.2778 17.5596L43.1959 4.50912ZM45.6521 19.7865L45.8486 19.8848C46.7493 20.4332 47.4981 21.1989 48.0264 22.1117C48.4658 22.8711 48.7445 23.7127 48.8451 24.5842H36.1712C36.2812 23.6268 36.6064 22.7067 37.1225 21.8928C37.6386 21.079 38.3322 20.3925 39.1514 19.8848H39.2988C40.2809 19.2719 41.416 18.9485 42.5737 18.9514C43.6549 18.9576 44.7159 19.2454 45.6521 19.7865ZM38.4473 5.55709C39.4568 4.98995 40.5709 4.63345 41.7222 4.50912V17.6087C40.8851 17.6886 40.0665 17.9043 39.2988 18.2473L33.5513 8.42262L38.4473 5.55709ZM24.0869 13.859L29.7524 10.5841L32.3232 9.09398L38.0216 18.9187C37.2936 19.4254 36.6616 20.0574 36.1549 20.7854L24.0869 13.859ZM8.28547 22.9795L22.6623 14.6777L23.0225 14.8742L35.4344 22.0626C35.0719 22.8657 34.8451 23.7233 34.763 24.6006H6.28778C6.87027 23.9649 7.54343 23.4187 8.28547 22.9795ZM4.24097 29.9878C4.24207 28.5986 4.60313 27.2334 5.28894 26.0252H56.4592L48.5667 33.9177C47.4179 33.5943 46.3168 33.1208 45.2918 32.5095C43.1807 31.2006 40.7341 30.5349 38.2508 30.5937C35.7344 30.5166 33.2512 31.183 31.1115 32.5095C29.2021 33.6949 26.9886 34.2981 24.7418 34.2452C22.495 34.2981 20.2815 33.6949 18.3722 32.5095C16.261 31.2006 13.8144 30.5349 11.3311 30.5937C8.84244 30.5327 6.38994 31.1984 4.27372 32.5095L4.24097 29.9878ZM4.24097 34.1306L4.91232 33.7376C6.82905 32.5552 9.04684 31.9524 11.2984 32.0019C13.5448 31.9518 15.7575 32.5548 17.6681 33.7376C19.7794 35.0442 22.227 35.7045 24.7091 35.637C27.1912 35.7045 29.6387 35.0442 31.7501 33.7376C33.6668 32.5552 35.8846 31.9524 38.1362 32.0019C40.3826 31.9518 42.5953 32.5548 44.5059 33.7376C45.4193 34.2759 46.3848 34.7202 47.3878 35.0639L47.2731 35.1622L39.4953 42.9401C39.0695 42.9401 38.6274 42.9401 38.1362 42.9401C35.6662 42.875 33.229 43.517 31.1115 44.7904C29.2045 45.9811 26.9893 46.5847 24.7418 46.5261C22.4943 46.5847 20.2792 45.9811 18.3722 44.7904C16.2555 43.4959 13.8116 42.8366 11.3311 42.8909C8.84521 42.8344 6.39544 43.4937 4.27372 44.7904L4.24097 34.1306ZM4.24097 46.4114L4.91232 46.084C6.82406 44.8901 9.04534 44.2864 11.2984 44.3483C13.5625 44.2799 15.7961 44.8839 17.7172 46.084C19.8316 47.3836 22.277 48.0433 24.7582 47.9834C27.2394 48.0433 29.6848 47.3836 31.7992 46.084C33.711 44.8901 35.9323 44.2864 38.1853 44.3483L28.9665 53.5507L23.6939 58.8233C21.818 58.7205 19.9961 58.1582 18.3885 57.1859C16.2719 55.8914 13.828 55.2321 11.3475 55.2864C8.86158 55.2299 6.41182 55.8892 4.29009 57.1859L4.24097 46.4114ZM5.02695 68.2714C4.51075 67.1927 4.24221 66.0122 4.24097 64.8164V58.7087L4.91232 58.3321C6.82406 57.1382 9.04534 56.5345 11.2984 56.5964C13.5459 56.5377 15.761 57.1413 17.6681 58.3321C19.1146 59.1945 20.7077 59.7829 22.3675 60.0678L22.2693 60.166L19.6494 62.7696L15.2446 67.2234C14.5431 67.8523 13.6474 68.2221 12.7066 68.2714H5.02695ZM46.5363 89.2308C45.332 89.9279 43.9652 90.2951 42.5737 90.2951C41.1519 90.2957 39.7557 89.917 38.5292 89.198L28.3279 83.4014H56.6557L46.5363 89.2308ZM59.0955 81.9769H25.8881L24.8073 81.3546L22.7769 80.192H27.8366C29.4214 80.1912 30.941 79.561 32.0612 78.44L36.6952 73.9206H73.2267L59.0955 81.9769ZM80.7426 64.8164C80.7431 66.2368 80.3696 67.6323 79.6596 68.8626C78.9497 70.0928 77.9282 71.1145 76.6981 71.8247L75.6665 72.4142H38.1034L46.1433 64.3906L46.2579 64.2597H80.7426V64.8164ZM80.7426 62.8514H47.6661L55.6896 54.8279L55.8206 54.7133H80.7426V62.8514ZM80.7426 53.3051H57.3107L65.3506 45.2652C65.3846 45.223 65.423 45.1846 65.4652 45.1506H80.8245L80.7426 53.3051ZM80.7426 43.7424H66.7915L73.5542 36.9634C74.2185 36.3755 75.0742 36.0495 75.9613 36.0464H80.7426V43.7424ZM80.7426 33.7048H75.9613C74.5012 33.709 73.0927 34.2444 71.9986 35.2113L63.5985 43.6114C60.7657 46.4278 57.4581 49.7519 54.0358 53.1741L44.4731 62.7368L30.4238 76.7861C29.7433 77.4578 28.8255 77.8343 27.8694 77.8341H18.716L8.28547 71.8247C7.69278 71.4948 7.14285 71.0933 6.64802 70.6293H12.7066C14.2364 70.5843 15.7021 70.005 16.8493 68.9919L21.3523 64.5053L23.9395 61.9017L30.6039 55.2537L40.9362 44.9214L49.0088 36.8324L58.2932 27.548C58.6193 27.2053 59.01 26.9304 59.4427 26.7393C59.8755 26.5482 60.3419 26.4446 60.8148 26.4346H79.9566C80.4747 27.5301 80.7432 28.7269 80.7426 29.9387V33.7048Z" fill="#1D1D1B"/>
</g>
<defs>
<clipPath id="clip0_202_2109">
<rect width="85" height="94.3335" fill="white" transform="translate(0 0.235352)"/>
</clipPath>
</defs>
</svg>
