<svg width="85" height="95" viewBox="0 0 85 95" fill="none" xmlns="http://www.w3.org/2000/svg">
<g clip-path="url(#clip0_202_2083)">
<path d="M78.8268 19.0763L48.665 1.63748C46.7911 0.553687 44.6647 -0.0169678 42.5 -0.0169678C40.3353 -0.0169678 38.2088 0.553687 36.335 1.63748L6.17316 19.0763C4.29864 20.1586 2.74158 21.7146 1.6581 23.5884C0.574618 25.4622 0.00279997 27.588 -2.34435e-05 29.7525V64.581C-0.00871836 66.7566 0.557637 68.8959 1.64169 70.7822C2.72575 72.6685 4.289 74.2349 6.17316 75.3227L36.335 92.6797C38.2088 93.7635 40.3353 94.3341 42.5 94.3341C44.6647 94.3341 46.7911 93.7635 48.665 92.6797L78.8268 75.3227C80.6991 74.2379 82.2543 72.6813 83.3375 70.8081C84.4206 68.9348 84.9939 66.8104 85 64.6465V29.7525C84.9939 27.5886 84.4206 25.4642 83.3375 23.5909C82.2543 21.7177 80.6991 20.1611 78.8268 19.0763ZM76.6981 22.7442C77.2575 23.0662 77.7746 23.4568 78.2373 23.9068H60.8148C60.0173 23.9068 59.2275 24.0625 58.4897 24.3653H50.3024C50.2224 23.4857 49.9897 22.6268 49.6147 21.8272L62.3868 14.4423L76.6981 22.7442ZM60.9131 13.6236L48.8287 20.5991C48.319 19.8792 47.6938 19.2485 46.9784 18.7324L52.6767 8.90775L60.9131 13.6236ZM43.1959 4.27377C44.3482 4.39308 45.4633 4.7499 46.4708 5.32174L51.3831 8.1709L45.8486 18.012C45.0397 17.6306 44.169 17.3977 43.2778 17.3242L43.1959 4.27377ZM45.6521 19.5512L45.8486 19.6494C46.7493 20.1979 47.4981 20.9636 48.0264 21.8763C48.4658 22.6357 48.7445 23.4773 48.8451 24.3489H36.1712C36.2812 23.3915 36.6064 22.4713 37.1225 21.6575C37.6386 20.8436 38.3322 20.1571 39.1514 19.6494H39.2988C40.2809 19.0366 41.416 18.7131 42.5737 18.7161C43.6549 18.7222 44.7159 19.0101 45.6521 19.5512ZM38.4473 5.32174C39.4568 4.7546 40.5709 4.39809 41.7222 4.27377V17.3734C40.8851 17.4533 40.0665 17.669 39.2988 18.012L33.5513 8.18727L38.4473 5.32174ZM24.0869 13.6236L29.7524 10.3487L32.3232 8.85863L38.0216 18.6833C37.2936 19.19 36.6616 19.8221 36.1549 20.55L24.0869 13.6236ZM8.28547 22.7442L22.6623 14.4423L23.0225 14.6388L35.4344 21.8272C35.0719 22.6303 34.8451 23.488 34.763 24.3653H6.28778C6.87027 23.7295 7.54343 23.1833 8.28547 22.7442ZM4.24097 29.7525C4.24207 28.3632 4.60313 26.998 5.28894 25.7899H56.4592L48.5667 33.6824C47.4179 33.359 46.3168 32.8855 45.2918 32.2742C43.1807 30.9653 40.7341 30.2996 38.2508 30.3583C35.7344 30.2812 33.2512 30.9476 31.1115 32.2742C29.2021 33.4596 26.9886 34.0627 24.7418 34.0098C22.495 34.0627 20.2815 33.4596 18.3722 32.2742C16.261 30.9653 13.8144 30.2996 11.3311 30.3583C8.84244 30.2973 6.38994 30.9631 4.27372 32.2742L4.24097 29.7525ZM4.24097 33.8952L4.91232 33.5022C6.82905 32.3199 9.04684 31.7171 11.2984 31.7665C13.5448 31.7165 15.7575 32.3194 17.6681 33.5022C19.7794 34.8089 22.227 35.4692 24.7091 35.4017C27.1912 35.4692 29.6387 34.8089 31.7501 33.5022C33.6668 32.3199 35.8846 31.7171 38.1362 31.7665C40.3826 31.7165 42.5953 32.3194 44.5059 33.5022C45.4193 34.0405 46.3848 34.4849 47.3878 34.8286L47.2731 34.9268L39.4953 42.7047C39.0695 42.7047 38.6274 42.7047 38.1362 42.7047C35.6662 42.6397 33.229 43.2817 31.1115 44.555C29.2045 45.7458 26.9893 46.3494 24.7418 46.2907C22.4943 46.3494 20.2792 45.7458 18.3722 44.555C16.2555 43.2606 13.8116 42.6013 11.3311 42.6556C8.84521 42.5991 6.39544 43.2584 4.27372 44.555L4.24097 33.8952ZM4.24097 46.1761L4.91232 45.8486C6.82406 44.6548 9.04534 44.051 11.2984 44.1129C13.5625 44.0445 15.7961 44.6485 17.7172 45.8486C19.8316 47.1482 22.277 47.8079 24.7582 47.7481C27.2394 47.8079 29.6848 47.1482 31.7992 45.8486C33.711 44.6548 35.9323 44.051 38.1853 44.1129L28.9665 53.3154L23.6939 58.588C21.818 58.4852 19.9961 57.9229 18.3885 56.9505C16.2719 55.6561 13.828 54.9968 11.3475 55.0511C8.86158 54.9945 6.41182 55.6539 4.29009 56.9505L4.24097 46.1761ZM5.02695 68.036C4.51075 66.9573 4.24221 65.7769 4.24097 64.581V58.4733L4.91232 58.0967C6.82406 56.9029 9.04534 56.2991 11.2984 56.361C13.5459 56.3024 15.761 56.906 17.6681 58.0967C19.1146 58.9591 20.7077 59.5475 22.3675 59.8324L22.2693 59.9307L19.6494 62.5342L15.2446 66.9881C14.5431 67.6169 13.6474 67.9867 12.7066 68.036H5.02695ZM46.5363 88.9954C45.332 89.6926 43.9652 90.0597 42.5737 90.0597C41.1519 90.0604 39.7557 89.6816 38.5292 88.9627L28.3279 83.1661H56.6557L46.5363 88.9954ZM59.0955 81.7415H25.8881L24.8073 81.1193L22.7769 79.9567H27.8366C29.4214 79.9559 30.941 79.3256 32.0612 78.2046L36.6952 73.6852H73.2267L59.0955 81.7415ZM80.7426 64.581C80.7431 66.0015 80.3696 67.397 79.6596 68.6272C78.9497 69.8575 77.9282 70.8791 76.6981 71.5893L75.6665 72.1788H38.1034L46.1433 64.1553L46.2579 64.0243H80.7426V64.581ZM80.7426 62.6161H47.6661L55.6896 54.5926L55.8206 54.478H80.7426V62.6161ZM80.7426 53.0698H57.3107L65.3506 45.0299C65.3846 44.9877 65.423 44.9492 65.4652 44.9153H80.8245L80.7426 53.0698ZM80.7426 43.5071H66.7915L73.5542 36.728C74.2185 36.1401 75.0742 35.8142 75.9613 35.811H80.7426V43.5071ZM80.7426 33.4695H75.9613C74.5012 33.4736 73.0927 34.0091 71.9986 34.9759L63.5985 43.3761C60.7657 46.1925 57.4581 49.5165 54.0358 52.9388L44.4731 62.5015L30.4238 76.5508C29.7433 77.2225 28.8255 77.599 27.8694 77.5988H18.716L8.28547 71.5893C7.69278 71.2594 7.14285 70.858 6.64802 70.394H12.7066C14.2364 70.3489 15.7021 69.7696 16.8493 68.7565L21.3523 64.2699L23.9395 61.6664L30.6039 55.0183L40.9362 44.686L49.0088 36.597L58.2932 27.3127C58.6193 26.9699 59.01 26.6951 59.4427 26.504C59.8755 26.3129 60.3419 26.2093 60.8148 26.1992H79.9566C80.4747 27.2947 80.7432 28.4915 80.7426 29.7034V33.4695Z" fill="#003B4D"/>
</g>
<defs>
<clipPath id="clip0_202_2083">
<rect width="85" height="94.3335" fill="white"/>
</clipPath>
</defs>
</svg>
