<svg width="85" height="95" viewBox="0 0 85 95" fill="none" xmlns="http://www.w3.org/2000/svg">
<g clip-path="url(#clip0_202_2111)">
<path d="M48.8288 24.7572H36.1713C36.2789 23.7969 36.603 22.8735 37.1192 22.0567C37.6354 21.2398 38.3303 20.5507 39.1515 20.0414H39.2989C40.281 19.4285 41.4161 19.1051 42.5738 19.108C43.6828 19.0998 44.7739 19.3881 45.734 19.9431L45.8487 20.0414C46.7494 20.5898 47.4982 21.3555 48.0265 22.2683C48.4623 23.0339 48.7354 23.8812 48.8288 24.7572Z" fill="#F0D283"/>
<path d="M78.2373 24.2988H60.8148C60.0173 24.2987 59.2275 24.4545 58.4897 24.7573H50.3024C50.2224 23.8777 49.9897 23.0188 49.6147 22.2192L62.3868 14.8343L76.7636 23.1362C77.3001 23.4627 77.7949 23.8531 78.2373 24.2988Z" fill="#A1D683"/>
<path d="M60.9131 14.0156L48.8288 20.9911C48.319 20.2712 47.6938 19.6405 46.9785 19.1244L52.6768 9.29974L60.9131 14.0156Z" fill="#A2D9E7"/>
<path d="M51.4486 8.5793L45.8486 18.404C45.0397 18.0227 44.169 17.7897 43.2778 17.7163V4.61667C44.4301 4.73598 45.5452 5.0928 46.5527 5.66464L51.4486 8.5793Z" fill="#A2D9E7"/>
<path d="M41.7877 4.66574V17.7653C40.9283 17.8381 40.0871 18.054 39.2988 18.4039L33.5513 8.57925L38.4637 5.73008C39.4869 5.15088 40.6184 4.78858 41.7877 4.66574Z" fill="#A2D9E7"/>
<path d="M38.0216 19.1244C37.2937 19.6311 36.6616 20.2632 36.1549 20.9911L24.0869 14.0156L29.7525 10.7407L32.3233 9.25058L38.0216 19.1244Z" fill="#A2D9E7"/>
<path d="M35.4344 22.2192C35.072 23.0223 34.8451 23.88 34.7631 24.7572H6.28784C6.86917 24.1157 7.54238 23.5639 8.28553 23.1198L22.6623 14.8179L23.0226 15.0144L35.4344 22.2192Z" fill="#A1D683"/>
<path d="M22.4167 60.2244L22.3185 60.3227L19.6494 62.9262L15.2447 67.3801C14.5431 68.0089 13.6475 68.3787 12.7066 68.428H5.027C4.51081 67.3493 4.24227 66.1689 4.24103 64.973V58.8653L4.91238 58.4887C6.82412 57.2949 9.0454 56.6911 11.2984 56.753C13.5459 56.6944 15.7611 57.298 17.6681 58.4887C19.1296 59.3568 20.7399 59.9453 22.4167 60.2244Z" fill="#5FD0DF"/>
<path d="M80.7427 30.1445V33.8615H75.9613C74.5013 33.8656 73.0927 34.4011 71.9987 35.3679L63.5986 43.768C60.7658 46.5844 57.4581 49.9085 54.0359 53.3307L44.4732 62.8934L30.4238 76.9428C29.7433 77.6144 28.8256 77.9909 27.8694 77.9907H18.7161L8.28552 71.9813C7.69283 71.6514 7.1429 71.2499 6.64807 70.7859H12.7066C14.2364 70.7409 15.7022 70.1616 16.8494 69.1485L21.3524 64.6619L23.9395 62.0583L30.604 55.4103L40.9363 45.078L49.0089 36.989L58.2932 27.7047C58.6193 27.3619 59.01 27.087 59.4428 26.8959C59.8756 26.7048 60.3419 26.6013 60.8149 26.5912H79.9567C80.4819 27.7016 80.7505 28.9161 80.7427 30.1445Z" fill="#D9D8D6"/>
<path d="M38.1853 44.4557L28.9665 53.6582L23.6939 58.9308C21.818 58.828 19.9961 58.2657 18.3885 57.2933C16.2719 55.9989 13.828 55.3396 11.3475 55.3939C8.86159 55.3374 6.41183 55.9967 4.2901 57.2933V46.568L4.91233 46.2405C6.82407 45.0467 9.04535 44.443 11.2984 44.5048C13.5625 44.4365 15.7961 45.0404 17.7172 46.2405C19.8316 47.5402 22.2771 48.1999 24.7582 48.14C27.2394 48.1999 29.6848 47.5402 31.7992 46.2405C33.711 45.0467 35.9323 44.443 38.1853 44.5048V44.4557Z" fill="#5FD0DF"/>
<path d="M47.486 35.2206L47.3714 35.3188L39.5935 43.0967C39.1678 43.0967 38.7257 43.0967 38.2344 43.0967C35.7313 43.0127 33.2574 43.6554 31.1115 44.947C29.2045 46.1378 26.9894 46.7414 24.7419 46.6827C22.4944 46.7414 20.2792 46.1378 18.3722 44.947C16.2555 43.6526 13.8116 42.9933 11.3312 43.0476C8.84523 42.9911 6.39547 43.6504 4.27374 44.947V34.2872L4.91235 33.8942C6.82907 32.7119 9.04686 32.1091 11.2984 32.1586C13.5449 32.1085 15.7576 32.7114 17.6681 33.8942C19.7795 35.2009 22.227 35.8612 24.7091 35.7937C27.1912 35.8612 29.6388 35.2009 31.7501 33.8942C33.6669 32.7119 35.8847 32.1091 38.1362 32.1586C40.3827 32.1085 42.5954 32.7114 44.5059 33.8942C45.4505 34.4386 46.4493 34.8831 47.486 35.2206Z" fill="#5FD0DF"/>
<path d="M56.4593 26.1818L48.5667 34.0743C47.418 33.7509 46.3168 33.2774 45.2919 32.6661C43.1807 31.3573 40.7341 30.6916 38.2508 30.7503C35.7345 30.6732 33.2512 31.3396 31.1115 32.6661C29.2022 33.8515 26.9887 34.4547 24.7419 34.4018C22.4951 34.4547 20.2816 33.8515 18.3722 32.6661C16.261 31.3573 13.8144 30.6916 11.3312 30.7503C8.84247 30.6893 6.38997 31.3551 4.27374 32.6661V30.1445C4.27484 28.7552 4.6359 27.39 5.32171 26.1818H56.4593Z" fill="#5FD0DF"/>
<path d="M80.7426 36.203V43.899H66.7915L73.5542 37.12C74.2185 36.5321 75.0741 36.2061 75.9612 36.203H80.7426Z" fill="#DEA36D"/>
<path d="M80.7426 45.3073V53.4945H57.3107L65.3506 45.4546C65.3846 45.4124 65.423 45.374 65.4652 45.34L80.7426 45.3073Z" fill="#DEA36D"/>
<path d="M80.7426 54.87V63.0572H47.6661L55.6896 55.0337L55.8206 54.9191L80.7426 54.87Z" fill="#DEA36D"/>
<path d="M80.7426 64.4163V64.973C80.7432 66.3934 80.3697 67.7889 79.6597 69.0192C78.9497 70.2495 77.9283 71.2711 76.6981 71.9813L75.6665 72.5708H38.1035L46.1433 64.5473L46.258 64.4163H80.7426Z" fill="#DEA36D"/>
<path d="M73.2267 74.0772L59.0955 82.2645H25.888L24.8073 81.6423L22.7769 80.4797H27.8366C29.4214 80.4789 30.941 79.8486 32.0612 78.7276L36.6952 74.0772H73.2267Z" fill="#DEA36D"/>
<path d="M56.6558 83.558L46.5363 89.3874C45.3321 90.0846 43.9652 90.4517 42.5737 90.4517C41.1519 90.4523 39.7558 90.0736 38.5292 89.3546L28.3279 83.558H56.6558Z" fill="#DEA36D"/>
<path d="M78.8268 19.4683L48.665 2.02947C46.7911 0.945685 44.6647 0.375031 42.5 0.375031C40.3353 0.375031 38.2088 0.945685 36.335 2.02947L6.17316 19.4683C4.29864 20.5506 2.74158 22.1066 1.6581 23.9804C0.574618 25.8542 0.00279997 27.98 -2.34435e-05 30.1445V64.973C-0.00871836 67.1486 0.557637 69.2879 1.64169 71.1742C2.72575 73.0605 4.289 74.6269 6.17316 75.7147L36.335 93.0717C38.2088 94.1554 40.3353 94.7261 42.5 94.7261C44.6647 94.7261 46.7911 94.1554 48.665 93.0717L78.8268 75.7147C80.6991 74.6299 82.2543 73.0733 83.3375 71.2001C84.4206 69.3268 84.9939 67.2024 85 65.0385V30.1445C84.9939 27.9806 84.4206 25.8562 83.3375 23.9829C82.2543 22.1097 80.6991 20.5531 78.8268 19.4683ZM76.6981 23.1362C77.2575 23.4582 77.7746 23.8488 78.2373 24.2988H60.8148C60.0173 24.2988 59.2275 24.4545 58.4897 24.7573H50.3024C50.2224 23.8777 49.9897 23.0188 49.6147 22.2192L62.3868 14.8343L76.6981 23.1362ZM60.9131 14.0156L48.8287 20.9911C48.319 20.2712 47.6938 19.6405 46.9784 19.1244L52.6767 9.29975L60.9131 14.0156ZM43.1959 4.66577C44.3482 4.78507 45.4633 5.1419 46.4708 5.71374L51.3831 8.5629L45.8486 18.404C45.0397 18.0226 44.169 17.7897 43.2778 17.7162L43.1959 4.66577ZM45.6521 19.9432L45.8486 20.0414C46.7493 20.5899 47.4981 21.3556 48.0264 22.2683C48.4658 23.0277 48.7445 23.8693 48.8451 24.7409H36.1712C36.2812 23.7835 36.6064 22.8633 37.1225 22.0495C37.6386 21.2356 38.3322 20.5491 39.1514 20.0414H39.2988C40.2809 19.4286 41.416 19.1051 42.5737 19.1081C43.6549 19.1142 44.7159 19.4021 45.6521 19.9432ZM38.4473 5.71374C39.4568 5.1466 40.5709 4.79009 41.7222 4.66577V17.7654C40.8851 17.8453 40.0665 18.0609 39.2988 18.404L33.5513 8.57927L38.4473 5.71374ZM24.0869 14.0156L29.7524 10.7407L32.3232 9.25063L38.0216 19.0753C37.2936 19.582 36.6616 20.2141 36.1549 20.942L24.0869 14.0156ZM8.28547 23.1362L22.6623 14.8343L23.0225 15.0308L35.4344 22.2192C35.0719 23.0223 34.8451 23.88 34.763 24.7573H6.28778C6.87027 24.1215 7.54343 23.5753 8.28547 23.1362ZM4.24097 30.1445C4.24207 28.7552 4.60313 27.39 5.28894 26.1819H56.4592L48.5667 34.0744C47.4179 33.751 46.3168 33.2775 45.2918 32.6661C43.1807 31.3573 40.7341 30.6916 38.2508 30.7503C35.7344 30.6732 33.2512 31.3396 31.1115 32.6661C29.2021 33.8516 26.9886 34.4547 24.7418 34.4018C22.495 34.4547 20.2815 33.8516 18.3722 32.6661C16.261 31.3573 13.8144 30.6916 11.3311 30.7503C8.84244 30.6893 6.38994 31.3551 4.27372 32.6661L4.24097 30.1445ZM4.24097 34.2872L4.91232 33.8942C6.82905 32.7119 9.04684 32.1091 11.2984 32.1585C13.5448 32.1085 15.7575 32.7114 17.6681 33.8942C19.7794 35.2009 22.227 35.8612 24.7091 35.7937C27.1912 35.8612 29.6387 35.2009 31.7501 33.8942C33.6668 32.7119 35.8846 32.1091 38.1362 32.1585C40.3826 32.1085 42.5953 32.7114 44.5059 33.8942C45.4193 34.4325 46.3848 34.8769 47.3878 35.2206L47.2731 35.3188L39.4953 43.0967C39.0695 43.0967 38.6274 43.0967 38.1362 43.0967C35.6662 43.0317 33.229 43.6736 31.1115 44.947C29.2045 46.1378 26.9893 46.7414 24.7418 46.6827C22.4943 46.7414 20.2792 46.1378 18.3722 44.947C16.2555 43.6526 13.8116 42.9933 11.3311 43.0476C8.84521 42.9911 6.39544 43.6504 4.27372 44.947L4.24097 34.2872ZM4.24097 46.5681L4.91232 46.2406C6.82406 45.0468 9.04534 44.443 11.2984 44.5049C13.5625 44.4365 15.7961 45.0405 17.7172 46.2406C19.8316 47.5402 22.277 48.1999 24.7582 48.14C27.2394 48.1999 29.6848 47.5402 31.7992 46.2406C33.711 45.0468 35.9323 44.443 38.1853 44.5049L28.9665 53.7074L23.6939 58.98C21.818 58.8772 19.9961 58.3149 18.3885 57.3425C16.2719 56.0481 13.828 55.3888 11.3475 55.4431C8.86158 55.3865 6.41182 56.0459 4.29009 57.3425L4.24097 46.5681ZM5.02695 68.428C4.51075 67.3493 4.24221 66.1689 4.24097 64.973V58.8653L4.91232 58.4887C6.82406 57.2949 9.04534 56.6911 11.2984 56.753C13.5459 56.6944 15.761 57.298 17.6681 58.4887C19.1146 59.3511 20.7077 59.9395 22.3675 60.2244L22.2693 60.3227L19.6494 62.9262L15.2446 67.3801C14.5431 68.0089 13.6474 68.3787 12.7066 68.428H5.02695ZM46.5363 89.3874C45.332 90.0846 43.9652 90.4517 42.5737 90.4517C41.1519 90.4524 39.7557 90.0736 38.5292 89.3547L28.3279 83.5581H56.6557L46.5363 89.3874ZM59.0955 82.1335H25.8881L24.8073 81.5113L22.7769 80.3487H27.8366C29.4214 80.3479 30.941 79.7176 32.0612 78.5966L36.6952 74.0772H73.2267L59.0955 82.1335ZM80.7426 64.973C80.7431 66.3935 80.3696 67.789 79.6596 69.0192C78.9497 70.2495 77.9282 71.2711 76.6981 71.9813L75.6665 72.5708H38.1034L46.1433 64.5473L46.2579 64.4163H80.7426V64.973ZM80.7426 63.0081H47.6661L55.6896 54.9846L55.8206 54.87H80.7426V63.0081ZM80.7426 53.4618H57.3107L65.3506 45.4219C65.3846 45.3797 65.423 45.3412 65.4652 45.3073H80.8245L80.7426 53.4618ZM80.7426 43.8991H66.7915L73.5542 37.12C74.2185 36.5321 75.0742 36.2062 75.9613 36.203H80.7426V43.8991ZM80.7426 33.8615H75.9613C74.5012 33.8656 73.0927 34.4011 71.9986 35.3679L63.5985 43.7681C60.7657 46.5845 57.4581 49.9085 54.0358 53.3308L44.4731 62.8935L30.4238 76.9428C29.7433 77.6145 28.8255 77.991 27.8694 77.9908H18.716L8.28547 71.9813C7.69278 71.6514 7.14285 71.25 6.64802 70.786H12.7066C14.2364 70.7409 15.7021 70.1616 16.8493 69.1485L21.3523 64.6619L23.9395 62.0584L30.6039 55.4103L40.9362 45.078L49.0088 36.989L58.2932 27.7047C58.6193 27.3619 59.01 27.0871 59.4427 26.896C59.8755 26.7049 60.3419 26.6013 60.8148 26.5912H79.9566C80.4747 27.6867 80.7432 28.8835 80.7426 30.0954V33.8615Z" fill="#003B4D"/>
</g>
<defs>
<clipPath id="clip0_202_2111">
<rect width="85" height="94.3335" fill="white" transform="translate(0 0.391968)"/>
</clipPath>
</defs>
</svg>
