<svg width="85" height="95" viewBox="0 0 85 95" fill="none" xmlns="http://www.w3.org/2000/svg">
<g clip-path="url(#clip0_202_2087)">
<path d="M78.8268 19.1547L48.665 1.71584C46.7911 0.632056 44.6647 0.0614014 42.5 0.0614014C40.3353 0.0614014 38.2088 0.632056 36.335 1.71584L6.17316 19.1547C4.29864 20.2369 2.74158 21.793 1.6581 23.6668C0.574618 25.5406 0.00279997 27.6663 -2.34435e-05 29.8309V64.6594C-0.00871836 66.835 0.557637 68.9743 1.64169 70.8606C2.72575 72.7469 4.289 74.3133 6.17316 75.4011L36.335 92.758C38.2088 93.8418 40.3353 94.4125 42.5 94.4125C44.6647 94.4125 46.7911 93.8418 48.665 92.758L78.8268 75.4011C80.6991 74.3163 82.2543 72.7597 83.3375 70.8864C84.4206 69.0132 84.9939 66.8887 85 64.7249V29.8309C84.9939 27.667 84.4206 25.5426 83.3375 23.6693C82.2543 21.7961 80.6991 20.2395 78.8268 19.1547ZM76.6981 22.8226C77.2575 23.1446 77.7746 23.5351 78.2373 23.9852H60.8148C60.0173 23.9851 59.2275 24.1409 58.4897 24.4436H50.3024C50.2224 23.5641 49.9897 22.7052 49.6147 21.9056L62.3868 14.5207L76.6981 22.8226ZM60.9131 13.702L48.8287 20.6775C48.319 19.9576 47.6938 19.3269 46.9784 18.8108L52.6767 8.98612L60.9131 13.702ZM43.1959 4.35214C44.3482 4.47144 45.4633 4.82827 46.4708 5.40011L51.3831 8.24927L45.8486 18.0903C45.0397 17.709 44.169 17.4761 43.2778 17.4026L43.1959 4.35214ZM45.6521 19.6295L45.8486 19.7278C46.7493 20.2763 47.4981 21.0419 48.0264 21.9547C48.4658 22.7141 48.7445 23.5557 48.8451 24.4273H36.1712C36.2812 23.4698 36.6064 22.5497 37.1225 21.7358C37.6386 20.922 38.3322 20.2355 39.1514 19.7278H39.2988C40.2809 19.115 41.416 18.7915 42.5737 18.7944C43.6549 18.8006 44.7159 19.0884 45.6521 19.6295ZM38.4473 5.40011C39.4568 4.83297 40.5709 4.47646 41.7222 4.35214V17.4517C40.8851 17.5316 40.0665 17.7473 39.2988 18.0903L33.5513 8.26564L38.4473 5.40011ZM24.0869 13.702L29.7524 10.4271L32.3232 8.937L38.0216 18.7617C37.2936 19.2684 36.6616 19.9004 36.1549 20.6284L24.0869 13.702ZM8.28547 22.8226L22.6623 14.5207L23.0225 14.7172L35.4344 21.9056C35.0719 22.7087 34.8451 23.5663 34.763 24.4436H6.28778C6.87027 23.8079 7.54343 23.2617 8.28547 22.8226ZM4.24097 29.8309C4.24207 28.4416 4.60313 27.0764 5.28894 25.8682H56.4592L48.5667 33.7607C47.4179 33.4373 46.3168 32.9638 45.2918 32.3525C43.1807 31.0437 40.7341 30.378 38.2508 30.4367C35.7344 30.3596 33.2512 31.026 31.1115 32.3525C29.2021 33.5379 26.9886 34.1411 24.7418 34.0882C22.495 34.1411 20.2815 33.5379 18.3722 32.3525C16.261 31.0437 13.8144 30.378 11.3311 30.4367C8.84244 30.3757 6.38994 31.0415 4.27372 32.3525L4.24097 29.8309ZM4.24097 33.9736L4.91232 33.5806C6.82905 32.3982 9.04684 31.7954 11.2984 31.8449C13.5448 31.7949 15.7575 32.3978 17.6681 33.5806C19.7794 34.8872 22.227 35.5475 24.7091 35.4801C27.1912 35.5475 29.6387 34.8872 31.7501 33.5806C33.6668 32.3982 35.8846 31.7954 38.1362 31.8449C40.3826 31.7949 42.5953 32.3978 44.5059 33.5806C45.4193 34.1189 46.3848 34.5633 47.3878 34.9069L47.2731 35.0052L39.4953 42.7831C39.0695 42.7831 38.6274 42.7831 38.1362 42.7831C35.6662 42.7181 33.229 43.36 31.1115 44.6334C29.2045 45.8241 26.9893 46.4277 24.7418 46.3691C22.4943 46.4277 20.2792 45.8241 18.3722 44.6334C16.2555 43.3389 13.8116 42.6796 11.3311 42.734C8.84521 42.6774 6.39544 43.3368 4.27372 44.6334L4.24097 33.9736ZM4.24097 46.2545L4.91232 45.927C6.82406 44.7331 9.04534 44.1294 11.2984 44.1913C13.5625 44.1229 15.7961 44.7269 17.7172 45.927C19.8316 47.2266 22.277 47.8863 24.7582 47.8264C27.2394 47.8863 29.6848 47.2266 31.7992 45.927C33.711 44.7331 35.9323 44.1294 38.1853 44.1913L28.9665 53.3938L23.6939 58.6663C21.818 58.5636 19.9961 58.0012 18.3885 57.0289C16.2719 55.7344 13.828 55.0751 11.3475 55.1294C8.86158 55.0729 6.41182 55.7322 4.29009 57.0289L4.24097 46.2545ZM5.02695 68.1144C4.51075 67.0357 4.24221 65.8553 4.24097 64.6594V58.5517L4.91232 58.1751C6.82406 56.9813 9.04534 56.3775 11.2984 56.4394C13.5459 56.3807 15.761 56.9844 17.6681 58.1751C19.1146 59.0375 20.7077 59.6259 22.3675 59.9108L22.2693 60.009L19.6494 62.6126L15.2446 67.0665C14.5431 67.6953 13.6474 68.0651 12.7066 68.1144H5.02695ZM46.5363 89.0738C45.332 89.771 43.9652 90.1381 42.5737 90.1381C41.1519 90.1387 39.7557 89.76 38.5292 89.041L28.3279 83.2445H56.6557L46.5363 89.0738ZM59.0955 81.8199H25.8881L24.8073 81.1976L22.7769 80.0351H27.8366C29.4214 80.0342 30.941 79.404 32.0612 78.283L36.6952 73.7636H73.2267L59.0955 81.8199ZM80.7426 64.6594C80.7431 66.0798 80.3696 67.4753 79.6596 68.7056C78.9497 69.9359 77.9282 70.9575 76.6981 71.6677L75.6665 72.2572H38.1034L46.1433 64.2337L46.2579 64.1027H80.7426V64.6594ZM80.7426 62.6945H47.6661L55.6896 54.671L55.8206 54.5563H80.7426V62.6945ZM80.7426 53.1481H57.3107L65.3506 45.1083C65.3846 45.066 65.423 45.0276 65.4652 44.9936H80.8245L80.7426 53.1481ZM80.7426 43.5854H66.7915L73.5542 36.8064C74.2185 36.2185 75.0742 35.8925 75.9613 35.8894H80.7426V43.5854ZM80.7426 33.5479H75.9613C74.5012 33.552 73.0927 34.0875 71.9986 35.0543L63.5985 43.4544C60.7657 46.2708 57.4581 49.5949 54.0358 53.0171L44.4731 62.5798L30.4238 76.6292C29.7433 77.3008 28.8255 77.6773 27.8694 77.6771H18.716L8.28547 71.6677C7.69278 71.3378 7.14285 70.9363 6.64802 70.4724H12.7066C14.2364 70.4273 15.7021 69.848 16.8493 68.8349L21.3523 64.3483L23.9395 61.7447L30.6039 55.0967L40.9362 44.7644L49.0088 36.6754L58.2932 27.3911C58.6193 27.0483 59.01 26.7734 59.4427 26.5823C59.8755 26.3912 60.3419 26.2877 60.8148 26.2776H79.9566C80.4747 27.3731 80.7432 28.5699 80.7426 29.7817V33.5479Z" fill="#D9D8D6"/>
</g>
<defs>
<clipPath id="clip0_202_2087">
<rect width="85" height="94.3335" fill="white" transform="translate(0 0.0783691)"/>
</clipPath>
</defs>
</svg>
