<svg width="91" height="100" viewBox="0 0 91 100" fill="none" xmlns="http://www.w3.org/2000/svg">
<g clip-path="url(#clip0_202_1800)">
<path d="M49.52 39H40.66C40.7278 38.3901 40.9219 37.8009 41.23 37.27C41.5993 36.6293 42.1215 36.0899 42.75 35.7L42.87 35.63C43.5459 35.2433 44.3112 35.0398 45.09 35.0398C45.8688 35.0398 46.634 35.2433 47.31 35.63L47.43 35.7C48.0719 36.0722 48.6114 36.5979 49 37.23C49.2959 37.7769 49.4731 38.38 49.52 39Z" fill="#CAC9C9"/>
<path d="M70.13 38.63H57.92C57.3603 38.6321 56.8065 38.7442 56.29 38.96H50.51C50.4412 38.339 50.2688 37.734 50 37.17L59 32L69.07 37.81C69.4535 38.0419 69.8092 38.317 70.13 38.63Z" fill="#ABABAB"/>
<path d="M58 31.44L49.54 36.32C49.1795 35.8195 48.7405 35.3805 48.24 35.02L52.24 28.1L58 31.44Z" fill="#C0C0C0"/>
<path d="M51.36 27.61L47.36 34.51C46.7903 34.2544 46.1819 34.0956 45.56 34.04V24.89C46.384 24.9595 47.1827 25.2087 47.9 25.62L51.36 27.61Z" fill="#C0C0C0"/>
<path d="M44.6 24.89V34C43.978 34.0556 43.3697 34.2144 42.8 34.47L38.8 27.57L42.24 25.57C42.9663 25.1706 43.7725 24.9383 44.6 24.89Z" fill="#C0C0C0"/>
<path d="M42 35C41.4915 35.3584 41.0484 35.8015 40.69 36.31L32.24 31.43L36.24 29.14L38.04 28.14L42 35Z" fill="#C0C0C0"/>
<path d="M40.15 37.17C39.8872 37.7483 39.7248 38.3672 39.67 39H19.73C20.1341 38.549 20.6065 38.1643 21.13 37.86L31.2 32L31.44 32.14L40.15 37.17Z" fill="#ABABAB"/>
<path d="M31 63.8L30.93 63.86L29.11 65.69L26 68.81C25.5084 69.2525 24.8803 69.5136 24.22 69.55H18.84C18.4849 68.7927 18.3006 67.9665 18.3 67.13V62.85L18.8 62.58C20.1385 61.7446 21.6927 61.3204 23.27 61.36C24.8443 61.3188 26.3958 61.7432 27.73 62.58C28.7353 63.1852 29.844 63.5988 31 63.8Z" fill="#A7A7A7"/>
<path d="M71.88 42.7299V45.33H68.54C67.5145 45.3294 66.5248 45.7068 65.76 46.3899C65.76 46.3899 65.69 46.39 59.87 52.27L53.17 59L46.48 65.69L36.63 75.54C36.157 76.0109 35.5175 76.2768 34.85 76.2799H28.43L21.13 72C20.7221 71.7764 20.3427 71.5044 20 71.19H24.2C25.2848 71.1575 26.3216 70.735 27.12 70C27.12 70 28.34 68.7699 30.27 66.8499L32.12 65L36.78 60.34L44 53.18L49.66 47.52L56.16 41.02C56.3941 40.7837 56.6731 40.5966 56.9804 40.4696C57.2878 40.3425 57.6174 40.278 57.95 40.2799H71.35C71.7069 41.047 71.888 41.884 71.88 42.7299Z" fill="#D7D7D7"/>
<path d="M42.07 52.76L35.62 59.2L31.92 62.9C30.602 62.8103 29.3254 62.4019 28.2 61.71C26.7196 60.8 25.0073 60.3381 23.27 60.38C21.5294 60.3361 19.8134 60.7981 18.33 61.71V54.24L18.83 53.97C20.1685 53.1346 21.7227 52.7104 23.3 52.75C24.8673 52.7237 26.4077 53.1583 27.73 54C29.2152 54.9076 30.9299 55.3693 32.67 55.33C34.4068 55.3679 36.118 54.9063 37.6 54C38.937 53.1613 40.4923 52.7368 42.07 52.78V52.76Z" fill="#A7A7A7"/>
<path d="M48.55 46.2799L48.46 46.3599C46.81 47.9999 44.94 49.8799 43 51.7999C42.7 51.7999 42.39 51.7999 42 51.7999C40.2594 51.7561 38.5434 52.2181 37.06 53.1299C35.7232 53.9608 34.1736 54.3847 32.6 54.3499C31.0439 54.3635 29.5166 53.9296 28.2 53.0999C26.7196 52.1899 25.0073 51.728 23.27 51.7699C21.5294 51.7261 19.8134 52.1881 18.33 53.0999V45.6299L18.83 45.3599C20.1704 44.5288 21.7233 44.105 23.3 44.1399C24.8736 44.1052 26.4232 44.5291 27.76 45.3599C29.2434 46.2718 30.9594 46.7338 32.7 46.6899C34.4373 46.7319 36.1495 46.2699 37.63 45.3599C38.9824 44.5612 40.5243 44.1398 42.095 44.1398C43.6657 44.1398 45.2076 44.5612 46.56 45.3599C47.1915 45.7312 47.8581 46.0394 48.55 46.2799Z" fill="#A7A7A7"/>
<path d="M54.87 40L49.35 45.53C48.5231 45.3101 47.7318 44.9733 47 44.53C45.5013 43.6588 43.7986 43.1999 42.065 43.1999C40.3315 43.1999 38.6288 43.6588 37.13 44.53C35.7959 45.3668 34.2444 45.7912 32.67 45.75C31.0923 45.7932 29.5371 45.3687 28.2 44.53C26.718 43.6237 25.0068 43.1621 23.27 43.2C21.5299 43.1607 19.8152 43.6224 18.33 44.53V42.73C18.3211 41.7782 18.5515 40.8395 19 40H54.87Z" fill="#A7A7A7"/>
<path d="M71.88 47V52.39H62.11L66.85 47.65C67.3148 47.2339 67.9161 47.0026 68.54 47H71.88Z" fill="#939393"/>
<path d="M71.88 53.35V59.06H55.41L61 53.43L61.08 53.35H71.88Z" fill="#939393"/>
<path d="M71.88 60V65.71H48.71L54.33 60.09L54.42 60H71.88Z" fill="#939393"/>
<path d="M71.88 66.74V67.13C71.8745 68.1181 71.6103 69.0876 71.1138 69.942C70.6173 70.7964 69.9058 71.5059 69.05 72L68.32 72.42H42L47.62 66.8L47.71 66.71L71.88 66.74Z" fill="#939393"/>
<path d="M66.61 73.4399L56.72 79.1499H33.46L32.7 78.7099L31.28 77.8899H34.85C35.3979 77.8914 35.9407 77.7843 36.447 77.5749C36.9533 77.3656 37.4132 77.058 37.8 76.6699L41 73.4399H66.61Z" fill="#939393"/>
<path d="M55 80.14L47.91 84.23C47.0499 84.7278 46.0737 84.9899 45.08 84.9899C44.0862 84.9899 43.1101 84.7278 42.25 84.23L35.16 80.14H55Z" fill="#939393"/>
<path d="M70.54 35.25L49.41 23.05C48.0972 22.2898 46.6071 21.8894 45.09 21.8894C43.573 21.8894 42.0828 22.2898 40.77 23.05L19.64 35.25C18.329 36.0105 17.2402 37.1013 16.4822 38.4138C15.7242 39.7262 15.3235 41.2144 15.32 42.73V67.13C15.3245 68.6455 15.7256 70.1333 16.4835 71.4456C17.2414 72.7579 18.3296 73.8489 19.64 74.61L40.77 86.8C42.0828 87.5603 43.573 87.9607 45.09 87.9607C46.6071 87.9607 48.0972 87.5603 49.41 86.8L70.54 74.61C71.8504 73.8489 72.9386 72.7579 73.6965 71.4456C74.4544 70.1333 74.8555 68.6455 74.86 67.13V42.73C74.8566 41.2144 74.4558 39.7262 73.6979 38.4138C72.9399 37.1013 71.8511 36.0105 70.54 35.25ZM69.05 37.82C69.44 38.0475 69.8024 38.3193 70.13 38.63H57.92C57.3603 38.6322 56.8065 38.7443 56.29 38.96H50.51C50.4412 38.3391 50.2688 37.734 50 37.17L59 32L69.05 37.82ZM58 31.44L49.54 36.32C49.1795 35.8196 48.7405 35.3806 48.24 35.02L52.24 28.1L58 31.44ZM45.58 24.89C46.404 24.9595 47.2027 25.2087 47.92 25.62L51.36 27.62L47.36 34.52C46.7903 34.2645 46.182 34.1056 45.56 34.05L45.58 24.89ZM47.31 35.59L47.43 35.66C48.0768 36.0434 48.6167 36.5833 49 37.23C49.2959 37.7769 49.4731 38.38 49.52 39H40.66C40.7278 38.3901 40.922 37.8009 41.23 37.27C41.5993 36.6293 42.1215 36.0899 42.75 35.7L42.87 35.63C43.546 35.2433 44.3112 35.0398 45.09 35.0398C45.8688 35.0398 46.6341 35.2433 47.31 35.63V35.59ZM42.26 25.59C42.9761 25.176 43.7755 24.9266 44.6 24.86V34C43.9781 34.0556 43.3697 34.2145 42.8 34.47L38.8 27.57L42.26 25.59ZM32.19 31.43L36.19 29.14L37.99 28.14L42 35C41.4915 35.3584 41.0484 35.8016 40.69 36.31L32.24 31.43H32.19ZM21.13 37.82L31.2 32L31.44 32.14L40.14 37.14C39.8773 37.7283 39.7183 38.3576 39.67 39H19.73C20.131 38.5348 20.6036 38.1365 21.13 37.82ZM18.3 42.73C18.3003 41.7757 18.541 40.8368 19 40H54.87L49.35 45.53C48.5231 45.3101 47.7318 44.9734 47 44.53C45.5012 43.6588 43.7986 43.1999 42.065 43.1999C40.3314 43.1999 38.6288 43.6588 37.13 44.53C35.7958 45.3668 34.2443 45.7912 32.67 45.75C31.0923 45.7932 29.537 45.3688 28.2 44.53C26.718 43.6237 25.0068 43.1621 23.27 43.2C21.5299 43.1607 19.8152 43.6224 18.33 44.53L18.3 42.73ZM18.3 45.63L18.8 45.36C20.1404 44.5289 21.6933 44.1051 23.27 44.14C24.8436 44.1053 26.3932 44.5292 27.73 45.36C29.2133 46.2719 30.9294 46.7339 32.67 46.69C34.4073 46.732 36.1195 46.27 37.6 45.36C38.9524 44.5613 40.4943 44.14 42.065 44.14C43.6357 44.14 45.1776 44.5613 46.53 45.36C47.1647 45.7319 47.8346 46.0401 48.53 46.28L48.44 46.36C46.81 48 44.94 49.88 43 51.8C42.7 51.8 42.39 51.8 42 51.8C40.2594 51.7562 38.5434 52.2182 37.06 53.13C35.7232 53.9609 34.1736 54.3848 32.6 54.35C31.0439 54.3636 29.5166 53.9297 28.2 53.1C26.7195 52.1901 25.0073 51.7281 23.27 51.77C21.5294 51.7262 19.8133 52.1882 18.33 53.1L18.3 45.63ZM18.3 54.2401L18.8 53.97C20.1385 53.1346 21.6927 52.7104 23.27 52.75C24.8474 52.7178 26.3991 53.1527 27.73 54C29.2152 54.9077 30.9299 55.3694 32.67 55.33C34.4068 55.368 36.118 54.9064 37.6 54C38.937 53.1613 40.4923 52.7369 42.07 52.78L35.62 59.2001L31.92 62.9C30.602 62.8104 29.3254 62.402 28.2 61.71C26.7195 60.8 25.0073 60.3381 23.27 60.3801C21.5294 60.3362 19.8133 60.7982 18.33 61.71L18.3 54.2401ZM18.84 69.55C18.4849 68.7927 18.3006 67.9665 18.3 67.13V62.85L18.8 62.58C20.1385 61.7446 21.6927 61.3204 23.27 61.36C24.8444 61.3189 26.3958 61.7432 27.73 62.58C28.7353 63.1852 29.844 63.5988 31 63.8L30.93 63.86L29.11 65.69L26 68.81C25.5084 69.2525 24.8804 69.5136 24.22 69.55H18.84ZM47.92 84.23C47.0599 84.7278 46.0837 84.9899 45.09 84.9899C44.0963 84.9899 43.1201 84.7278 42.26 84.23L35.17 80.14H55L47.92 84.23ZM56.72 79.15H33.46L32.7 78.71L31.28 77.89H34.85C35.3979 77.8915 35.9407 77.7844 36.447 77.5751C36.9533 77.3657 37.4132 77.0581 37.8 76.67L41 73.44H66.61L56.72 79.15ZM71.88 67.15C71.871 68.1348 71.6052 69.1002 71.1089 69.9507C70.6126 70.8013 69.9029 71.5077 69.05 72L68.32 72.42H42L47.62 66.8L47.71 66.71H71.88V67.15ZM71.88 65.77H48.71L54.33 60.15L54.42 60.0601H71.88V65.77ZM71.88 59.08H55.41L61 53.43L61.08 53.35H71.88V59.08ZM71.88 52.38H62.11L66.85 47.64C67.3163 47.2276 67.9174 46.9999 68.54 47H71.88V52.38ZM71.88 45.38H68.54C67.5145 45.3795 66.5248 45.7569 65.76 46.44C65.76 46.44 65.69 46.44 59.87 52.32L53.17 59L46.48 65.69L36.63 75.54C36.157 76.011 35.5175 76.2769 34.85 76.28H28.43L21.13 72C20.7221 71.7765 20.3427 71.5045 20 71.19H24.2C25.2848 71.1576 26.3216 70.7351 27.12 70C27.12 70 28.34 68.77 30.27 66.85L32.12 65L36.78 60.34L44 53.18L49.66 47.52L56.16 41.02C56.3941 40.7838 56.6731 40.5967 56.9804 40.4696C57.2878 40.3426 57.6174 40.2781 57.95 40.28H71.35C71.7173 41.0447 71.9086 41.8818 71.91 42.73L71.88 45.38Z" fill="#3C3C3B"/>
<path d="M11.26 20.5C10.6422 19.671 10.2022 18.7234 9.96764 17.7166C9.73304 16.7097 9.70885 15.6652 9.8966 14.6485C10.0844 13.6319 10.48 12.6649 11.0587 11.8083C11.6375 10.9516 12.3869 10.2236 13.26 9.67C14.5951 8.63006 16.2413 8.06953 17.9337 8.0786C19.626 8.08767 21.2661 8.66581 22.59 9.72C22.6357 9.75553 22.6727 9.80102 22.6981 9.85301C22.7235 9.90501 22.7368 9.96212 22.7368 10.02C22.7368 10.0779 22.7235 10.135 22.6981 10.187C22.6727 10.239 22.6357 10.2845 22.59 10.32L21.4 11.16C20.9742 11.449 20.4929 11.6462 19.9868 11.7392C19.4806 11.8322 18.9607 11.8188 18.46 11.7C17.9014 11.5907 17.326 11.6002 16.7713 11.7276C16.2166 11.8551 15.6949 12.0978 15.24 12.44C14.764 12.7466 14.3585 13.1507 14.0503 13.6256C13.7422 14.1006 13.5383 14.6355 13.4523 15.1951C13.3663 15.7547 13.4001 16.3262 13.5514 16.8718C13.7027 17.4174 13.968 17.9246 14.33 18.36C14.6211 18.846 15.012 19.2646 15.477 19.5881C15.942 19.9116 16.4704 20.1327 17.0272 20.2367C17.5841 20.3407 18.1566 20.3252 18.707 20.1913C19.2575 20.0574 19.7731 19.8082 20.22 19.46C20.6923 19.144 21.0929 18.7324 21.3961 18.2518C21.6993 17.7712 21.8982 17.2323 21.98 16.67C22.034 16.1583 22.1945 15.6635 22.4511 15.2174C22.7077 14.7714 23.0548 14.384 23.47 14.08L24.66 13.23C24.7074 13.1977 24.7616 13.1768 24.8184 13.169C24.8752 13.1613 24.9331 13.1668 24.9874 13.1853C25.0417 13.2037 25.091 13.2345 25.1314 13.2752C25.1717 13.316 25.2021 13.3655 25.22 13.42C25.7814 15.0121 25.7908 16.7468 25.2466 18.3448C24.7024 19.9429 23.6364 21.3114 22.22 22.23C21.4046 22.8822 20.4622 23.3571 19.4529 23.6246C18.4436 23.892 17.3896 23.9461 16.3583 23.7833C15.3269 23.6205 14.3408 23.2444 13.463 22.6791C12.5852 22.1138 11.8349 21.3716 11.26 20.5Z" fill="#3C3C3B"/>
<path d="M33.25 1.14998C33.2973 1.13802 33.3465 1.13551 33.3947 1.14262C33.443 1.14973 33.4893 1.16631 33.5312 1.1914C33.573 1.21649 33.6094 1.24961 33.6384 1.28883C33.6674 1.32806 33.6883 1.37263 33.7 1.41998L36.37 12.23C36.4747 12.6509 36.4954 13.0883 36.4309 13.5172C36.3664 13.9461 36.218 14.3581 35.9942 14.7296C35.7704 15.1011 35.4755 15.4248 35.1265 15.6823C34.7774 15.9397 34.381 16.1258 33.96 16.23C33.9127 16.2419 33.8635 16.2445 33.8153 16.2373C33.767 16.2302 33.7207 16.2137 33.6789 16.1886C33.637 16.1635 33.6006 16.1304 33.5716 16.0911C33.5426 16.0519 33.5217 16.0073 33.51 15.96L30.84 5.14998C30.7353 4.72909 30.7146 4.29168 30.7791 3.86278C30.8436 3.43388 30.992 3.0219 31.2158 2.6504C31.4397 2.2789 31.7345 1.95516 32.0836 1.69771C32.4326 1.44025 32.829 1.25413 33.25 1.14998Z" fill="#3C3C3B"/>
<path d="M43.54 6.69004C43.6487 5.66226 43.9681 4.66792 44.4783 3.7691C44.9885 2.87027 45.6785 2.08626 46.5052 1.466C47.3319 0.84574 48.2775 0.402546 49.2832 0.164084C50.2888 -0.0743774 51.3328 -0.102987 52.35 0.0800406C53.9003 0.219194 55.3702 0.832267 56.56 1.83596C57.7498 2.83965 58.6017 4.18529 59 5.69004C59.0135 5.74837 59.0126 5.8091 58.9974 5.86701C58.9823 5.92493 58.9533 5.97831 58.913 6.02256C58.8727 6.06681 58.8222 6.10062 58.7659 6.12108C58.7097 6.14154 58.6493 6.14805 58.59 6.14004L56.8 5.91004C55.9191 5.81135 55.1029 5.39972 54.5 4.75004C53.8192 4.01077 52.8901 3.54801 51.89 3.45004C51.3336 3.35317 50.763 3.37522 50.2158 3.51473C49.6685 3.65424 49.157 3.90805 48.7149 4.25947C48.2728 4.61088 47.9101 5.05193 47.6507 5.55359C47.3914 6.05525 47.2411 6.60615 47.21 7.17004C47.0899 7.72706 47.0902 8.30329 47.2109 8.86017C47.3316 9.41705 47.5699 9.94171 47.9098 10.399C48.2497 10.8563 48.6834 11.2358 49.1819 11.5119C49.6803 11.788 50.232 11.9544 50.8 12C51.5731 12.1705 52.3799 12.101 53.1125 11.8008C53.8452 11.5006 54.4687 10.984 54.9 10.32L52.74 10C52.4045 9.95813 52.0806 9.85018 51.7871 9.68243C51.4936 9.51468 51.2362 9.29045 51.0298 9.02269C50.8234 8.75492 50.6721 8.44892 50.5846 8.12236C50.4971 7.7958 50.4751 7.45513 50.52 7.12004C50.5249 7.07169 50.5395 7.02483 50.563 6.98229C50.5865 6.93974 50.6183 6.9024 50.6567 6.8725C50.695 6.8426 50.7389 6.82076 50.7859 6.80831C50.8329 6.79586 50.8819 6.79304 50.93 6.80004L58.93 7.80004C58.9774 7.80617 59.0232 7.8217 59.0646 7.84572C59.106 7.86975 59.1422 7.90178 59.1711 7.93996C59.1999 7.97814 59.2209 8.02168 59.2327 8.06806C59.2446 8.11443 59.247 8.1627 59.24 8.21004L59 9.49004C58.5989 11.4029 57.4678 13.084 55.847 14.1764C54.2263 15.2687 52.2436 15.6861 50.32 15.34C49.2932 15.2509 48.2957 14.9517 47.3895 14.461C46.4832 13.9702 45.6875 13.2984 45.0517 12.4873C44.4159 11.6761 43.9536 10.743 43.6936 9.7457C43.4335 8.74844 43.3813 7.70836 43.54 6.69004Z" fill="#3C3C3B"/>
<path d="M67.4 11C69.68 7.69002 72.97 7.00002 76.4 9.35002C79.83 11.7 80.4 15.09 78.1 18.41L73.42 25.18C73.3652 25.2604 73.281 25.3159 73.1855 25.3346C73.0901 25.3533 72.9911 25.3337 72.91 25.28C72.1901 24.7827 71.6971 24.0197 71.5396 23.159C71.3821 22.2982 71.5729 21.4101 72.07 20.69L72.58 19.94L67.82 16.65L67.25 17.47C67.0107 17.8177 66.7051 18.1148 66.3508 18.3443C65.9964 18.5737 65.6003 18.731 65.1851 18.8072C64.7699 18.8834 64.3438 18.8769 63.9311 18.7882C63.5184 18.6994 63.1272 18.5301 62.78 18.29C62.7033 18.2321 62.6514 18.1474 62.6347 18.0527C62.618 17.9581 62.6378 17.8607 62.69 17.78L67.4 11ZM74.11 17.12C74.1491 17.1484 74.1935 17.1686 74.2406 17.1795C74.2877 17.1904 74.3365 17.1916 74.3841 17.1832C74.4317 17.1748 74.4771 17.1569 74.5177 17.1306C74.5582 17.1043 74.593 17.0701 74.62 17.03L75.11 16.33C76.27 14.65 76.11 13.27 74.49 12.13C72.87 10.99 71.49 11.36 70.34 13.04L69.85 13.74C69.7963 13.8211 69.7767 13.9201 69.7954 14.0155C69.8141 14.111 69.8697 14.1952 69.95 14.25L74.11 17.12Z" fill="#3C3C3B"/>
<path d="M2.81002 39.81C3.06093 39.5734 3.37241 39.4107 3.71002 39.34C4.04474 39.2813 4.3889 39.3088 4.71002 39.42C5.04739 39.5254 5.34868 39.7228 5.58002 39.99C5.80372 40.2535 5.95531 40.5705 6.02002 40.91C6.10802 41.2689 6.10113 41.6446 6.00002 42C5.91227 42.2678 5.77299 42.5158 5.59002 42.73C5.4209 42.9327 5.20455 43.0907 4.96002 43.19L4.75002 42.74C4.93428 42.656 5.09889 42.5342 5.23323 42.3826C5.36757 42.2311 5.46867 42.053 5.53002 41.86C5.61729 41.6029 5.6413 41.3284 5.60002 41.06C5.55444 40.8074 5.44028 40.5721 5.27002 40.38C5.09426 40.1781 4.86571 40.0292 4.61002 39.95C4.36 39.8609 4.09072 39.8402 3.83002 39.89C3.58037 39.9416 3.34905 40.059 3.16002 40.23C2.9597 40.4152 2.81143 40.6497 2.73002 40.91C2.66114 41.0999 2.63268 41.302 2.64646 41.5035C2.66023 41.7049 2.71594 41.9013 2.81002 42.08L2.37002 42.31C2.24171 42.0795 2.16655 41.8233 2.15002 41.56C2.13216 41.2748 2.173 40.9889 2.27002 40.72C2.37061 40.3761 2.55634 40.0631 2.81002 39.81Z" fill="#3C3C3B"/>
<path d="M1.13998 47.06L0.669983 47L1.24998 44.26L4.99998 45L4.42998 47.66L3.99998 47.59L4.45998 45.47L3.29998 45.22L2.89998 47.11L2.41998 47L2.81998 45.11L1.59998 44.86L1.13998 47.06Z" fill="#3C3C3B"/>
<path d="M3.86 52.86L0 52.52V52.07L3.06 50.07L0.27 49.76V49.22L4.11 49.56V50.01L1.05 52.06L3.91 52.31L3.86 52.86Z" fill="#3C3C3B"/>
<path d="M3.37 55.73V54.41H3.85L3.93 57.59H3.45V56.27L0 56.36V55.82L3.37 55.73Z" fill="#3C3C3B"/>
<path d="M0.560022 62.2L1.62002 61.2C1.62002 61.1 1.62002 61.02 1.62002 60.96L1.45002 60L0.290022 60.16L0.210022 59.61L4.00002 59.12L4.21002 60.61C4.28387 61.0287 4.20962 61.4601 4.00002 61.83C3.89865 61.9865 3.76328 62.1181 3.604 62.2151C3.44471 62.3121 3.26561 62.3718 3.08002 62.39C2.81388 62.4338 2.54068 62.3918 2.30002 62.27C2.06374 62.1473 1.87409 61.9506 1.76002 61.71L0.640022 62.79L0.560022 62.2ZM2.37002 61.66C2.46135 61.7412 2.57047 61.7997 2.68858 61.831C2.80669 61.8623 2.9305 61.8653 3.05002 61.84C3.16941 61.8294 3.28475 61.7913 3.38707 61.7289C3.48939 61.6665 3.57595 61.5813 3.64002 61.48C3.77873 61.2305 3.82141 60.9388 3.76002 60.66L3.63002 59.73L1.91002 60L2.00002 60.9C2.03599 61.1873 2.1661 61.4545 2.37002 61.66Z" fill="#3C3C3B"/>
<path d="M1.46999 65.6C1.55861 65.2562 1.74229 64.9443 1.99999 64.7C2.24892 64.4504 2.55941 64.271 2.89999 64.18C3.24423 64.0902 3.60575 64.0902 3.94999 64.18C4.28409 64.2713 4.58565 64.455 4.81999 64.71C5.08336 64.9882 5.2635 65.3346 5.33999 65.71C5.42973 66.061 5.42973 66.429 5.33999 66.78C5.25599 67.1139 5.08721 67.4205 4.84999 67.67C4.59828 67.9212 4.28416 68.1007 3.93999 68.19C3.59624 68.2835 3.23375 68.2835 2.88999 68.19C2.54758 68.0833 2.24018 67.8864 1.99999 67.62C1.75027 67.3555 1.5714 67.0321 1.47999 66.68C1.38697 66.3264 1.38353 65.9553 1.46999 65.6ZM2.34999 67.24C2.53 67.421 2.75401 67.5519 2.99999 67.62C3.25934 67.6848 3.53064 67.6848 3.78999 67.62C4.04722 67.5526 4.2819 67.418 4.46999 67.23C4.64767 67.0492 4.77519 66.8251 4.83999 66.58C4.90962 66.3213 4.90962 66.0487 4.83999 65.79C4.77114 65.5304 4.63686 65.2929 4.44999 65.1C4.27518 64.9125 4.04918 64.7803 3.79999 64.72C3.5454 64.645 3.27458 64.645 3.01999 64.72C2.77077 64.7783 2.54142 64.9015 2.35524 65.0772C2.16907 65.2528 2.0327 65.4746 1.95999 65.72C1.89036 65.9787 1.89036 66.2513 1.95999 66.51C2.02189 66.784 2.15664 67.0362 2.34999 67.24Z" fill="#3C3C3B"/>
<path d="M7.36999 71.64L7.59999 72.14L4.08999 73.73L3.85999 73.23L7.36999 71.64Z" fill="#3C3C3B"/>
<path d="M10.16 76.92L6.81997 78.84L6.58997 78.45L7.92997 75L5.43997 76.45L5.15997 76L8.49997 74.05L8.72997 74.44L7.38997 77.88L9.87997 76.44L10.16 76.92Z" fill="#3C3C3B"/>
<path d="M11.41 79.56L10.63 78.5L11.01 78.21L12.91 80.77L12.53 81.05L11.74 80L8.99998 82L8.66998 81.56L11.41 79.56Z" fill="#3C3C3B"/>
<path d="M13.33 86.3L12.98 86.62L11.08 84.57L13.92 82L15.76 84L15.41 84.33L13.94 82.73L13.07 83.53L14.38 84.95L14.03 85.27L12.72 83.8L11.81 84.65L13.33 86.3Z" fill="#3C3C3B"/>
<path d="M17.9 88.44L18.3 88.78L17.3 89.92C17.0461 89.9174 16.7949 89.8665 16.56 89.77C16.3085 89.6689 16.0753 89.527 15.87 89.35C15.5936 89.1104 15.3777 88.8089 15.24 88.47C15.1161 88.152 15.0815 87.8062 15.14 87.47C15.2044 87.1207 15.3606 86.7949 15.5926 86.526C15.8246 86.2571 16.124 86.0548 16.46 85.94C16.7813 85.8273 17.1276 85.8066 17.46 85.88C17.8316 85.9555 18.1766 86.128 18.46 86.38C18.6797 86.5484 18.8633 86.7593 19 87C19.1288 87.2291 19.1976 87.4871 19.2 87.75H18.72C18.7028 87.5447 18.6444 87.345 18.5482 87.1628C18.4519 86.9807 18.3199 86.8198 18.16 86.69C17.9594 86.5017 17.7099 86.3735 17.44 86.32C17.1915 86.2499 16.9285 86.2499 16.68 86.32C16.4289 86.4128 16.2053 86.5676 16.03 86.77C15.8559 86.9724 15.7386 87.2174 15.69 87.48C15.6436 87.7349 15.6678 87.9978 15.76 88.24C15.8633 88.4906 16.0243 88.7134 16.23 88.89C16.4676 89.1043 16.7634 89.2435 17.08 89.29L17.9 88.44Z" fill="#3C3C3B"/>
<path d="M21.15 93.16V91.71L20.95 91.59L20.15 91.06L19.5 92.06L19.05 91.76L21.18 88.54L22.43 89.37C22.8021 89.5984 23.0791 89.9535 23.21 90.37C23.2485 90.5404 23.2497 90.7172 23.2135 90.888C23.1772 91.0589 23.1044 91.22 23 91.36C22.8554 91.59 22.6419 91.7685 22.39 91.87C22.1405 91.9561 21.8694 91.9561 21.62 91.87V93.45L21.15 93.16ZM21.94 91.44C22.0593 91.4214 22.1735 91.3781 22.2752 91.313C22.3769 91.2478 22.4639 91.1621 22.5307 91.0615C22.5975 90.9608 22.6426 90.8474 22.6632 90.7283C22.6837 90.6093 22.6792 90.4873 22.65 90.37C22.5443 90.1063 22.3545 89.8848 22.11 89.74L21.33 89.23L20.33 90.67L21.11 91.19C21.3467 91.3722 21.642 91.4611 21.94 91.44Z" fill="#3C3C3B"/>
<path d="M26.2 94.82L24.37 93.9L23.56 94.57L23.05 94.32L26.34 91.66L26.83 91.9L26.66 96.13L26.14 95.87L26.2 94.82ZM26.2 94.34L26.31 92.28L24.74 93.6L26.2 94.34Z" fill="#3C3C3B"/>
<path d="M29.79 93.26L31.32 93.8C31.6758 93.9192 31.998 94.1214 32.26 94.39C32.5004 94.6342 32.6639 94.9437 32.73 95.28C32.7928 95.6153 32.7616 95.9613 32.64 96.28C32.5312 96.6154 32.3302 96.9134 32.06 97.14C31.799 97.3603 31.4791 97.4993 31.14 97.54C30.7682 97.5846 30.3912 97.54 30.04 97.41L28.51 96.87L29.79 93.26ZM30.17 97C30.4338 97.1029 30.7185 97.1406 31 97.11C31.2536 97.0769 31.4928 96.9729 31.69 96.81C31.8885 96.6353 32.0369 96.411 32.12 96.16C32.2165 95.9118 32.2408 95.6414 32.19 95.38C32.1433 95.1295 32.0212 94.8992 31.84 94.72C31.6429 94.5152 31.3994 94.3608 31.13 94.27L30.13 93.93L29.13 96.66L30.17 97Z" fill="#3C3C3B"/>
<path d="M34.9 98.6499C34.6339 98.4213 34.4348 98.1248 34.3239 97.792C34.2129 97.4592 34.1943 97.1025 34.27 96.7599C34.3388 96.4149 34.4975 96.0941 34.73 95.8299C34.9648 95.5733 35.2658 95.3865 35.6 95.2899C35.9537 95.1944 36.3263 95.1944 36.68 95.2899C37.0477 95.3535 37.3925 95.512 37.68 95.7499C37.9506 95.9751 38.1529 96.2713 38.2642 96.6052C38.3755 96.9391 38.3914 97.2975 38.31 97.6399C38.2411 97.985 38.0825 98.3058 37.85 98.5699C37.619 98.8262 37.3212 99.0132 36.99 99.1099C36.6363 99.2055 36.2637 99.2055 35.91 99.1099C35.5391 99.0467 35.1911 98.8882 34.9 98.6499ZM36.77 98.5999C37.0108 98.5178 37.2274 98.3769 37.4 98.1899C37.5718 97.986 37.6888 97.7416 37.74 97.4799C37.8102 97.2247 37.8102 96.9552 37.74 96.6999C37.6578 96.4591 37.5169 96.2426 37.33 96.0699C37.126 95.8981 36.8817 95.7811 36.62 95.7299C36.364 95.6696 36.0966 95.6786 35.8453 95.7559C35.594 95.8333 35.3678 95.9762 35.19 96.1699C35.0142 96.3713 34.8967 96.6168 34.85 96.8799C34.775 97.1345 34.775 97.4053 34.85 97.6599C34.9322 97.9032 35.077 98.1205 35.27 98.2899C35.4727 98.4637 35.7176 98.5809 35.98 98.6299C36.2413 98.6908 36.5141 98.6804 36.77 98.5999Z" fill="#3C3C3B"/>
<path d="M42.91 96.12H44.54C44.916 96.1159 45.2871 96.2052 45.62 96.38C45.9232 96.5334 46.1739 96.7736 46.34 97.07C46.5054 97.3774 46.592 97.721 46.592 98.07C46.592 98.4191 46.5054 98.7626 46.34 99.07C46.1583 99.3597 45.8983 99.592 45.59 99.74C45.249 99.898 44.8756 99.9734 44.5 99.96H42.88L42.91 96.12ZM44.45 99.52C44.7333 99.5335 45.0154 99.475 45.27 99.35C45.5018 99.242 45.6966 99.0681 45.83 98.85C45.965 98.6234 46.0343 98.3637 46.03 98.1C46.0456 97.8345 45.983 97.5703 45.85 97.34C45.728 97.1151 45.5393 96.9335 45.31 96.82C45.0572 96.6871 44.7756 96.6184 44.49 96.62H43.49V99.51L44.45 99.52Z" fill="#3C3C3B"/>
<path d="M51.52 99.09V99.56L48.74 99.87L48.37 96L51.08 95.7L51.13 96.18L49 96.46L49.13 97.63L51 97.42V97.89L49.08 98.1L49.22 99.33L51.52 99.09Z" fill="#3C3C3B"/>
<path d="M58.5 95.9401L59 95.7901L59.43 97.2301C59.2905 97.4431 59.1104 97.6266 58.9 97.77C58.6789 97.9222 58.4362 98.0402 58.18 98.1201C57.8261 98.2137 57.4539 98.2137 57.1 98.1201C56.7607 98.0515 56.4463 97.8926 56.19 97.6601C55.9294 97.4147 55.7395 97.1039 55.64 96.7601C55.5553 96.4321 55.5553 96.088 55.64 95.7601C55.7232 95.4214 55.8999 95.1131 56.15 94.8701C56.4118 94.6124 56.7355 94.4264 57.09 94.3301C57.3647 94.2445 57.6529 94.2106 57.94 94.2301C58.2015 94.2535 58.4545 94.3355 58.68 94.4701L58.45 94.9001C58.268 94.8009 58.0677 94.74 57.8614 94.7211C57.655 94.7021 57.4469 94.7256 57.25 94.7901C56.9851 94.8639 56.7439 95.0052 56.55 95.2C56.3656 95.3813 56.2342 95.6096 56.17 95.8601C56.1004 96.1188 56.1004 96.3913 56.17 96.6501C56.2464 96.9051 56.3877 97.1359 56.58 97.3201C56.7734 97.4924 57.0073 97.6128 57.26 97.67C57.5506 97.7242 57.8503 97.7031 58.1303 97.6085C58.4104 97.514 58.6616 97.3493 58.86 97.13L58.5 95.9401Z" fill="#3C3C3B"/>
<path d="M64.23 95.2401L64.42 95.6801L61.85 96.8001L60.32 93.2601L62.81 92.1801L63 92.6201L61 93.4801L61.47 94.5701L63.25 93.8001L63.43 94.2301L61.67 95.0001L62.16 96.1401L64.23 95.2401Z" fill="#3C3C3B"/>
<path d="M66.63 94.43C66.3897 94.4848 66.1402 94.4848 65.9 94.43V93.96C66.1148 94.0001 66.3352 94.0001 66.55 93.96C66.7893 93.9218 67.0197 93.8405 67.23 93.72C67.4557 93.6108 67.6437 93.4367 67.77 93.22C67.812 93.1452 67.8341 93.0608 67.8341 92.975C67.8341 92.8891 67.812 92.8048 67.77 92.73C67.7445 92.6753 67.7069 92.6271 67.6602 92.589C67.6134 92.5509 67.5587 92.5239 67.5 92.51C67.3785 92.4799 67.2515 92.4799 67.13 92.51C67 92.51 66.82 92.58 66.59 92.64C66.3544 92.714 66.1138 92.7708 65.87 92.81C65.6893 92.8545 65.5006 92.8545 65.32 92.81C65.1206 92.7307 64.957 92.5814 64.86 92.39C64.7628 92.22 64.7176 92.0253 64.73 91.83C64.7483 91.6153 64.8281 91.4104 64.96 91.24C65.1328 91.0168 65.3509 90.8328 65.6 90.7C65.795 90.5903 66.0034 90.5063 66.22 90.45C66.4212 90.392 66.6314 90.3716 66.84 90.39L66.9 90.86C66.7119 90.8513 66.5235 90.8682 66.34 90.91C66.1614 90.9522 65.9897 91.0195 65.83 91.11C65.6069 91.2193 65.4221 91.3936 65.3 91.61C65.2605 91.6874 65.2399 91.7731 65.2399 91.86C65.2399 91.9469 65.2605 92.0326 65.3 92.11C65.3596 92.2121 65.4563 92.2873 65.57 92.32C65.6949 92.3501 65.8251 92.3501 65.95 92.32C66.1322 92.2867 66.3125 92.2433 66.49 92.19C66.7219 92.115 66.9593 92.0582 67.2 92.02C67.3811 91.9801 67.5688 91.9801 67.75 92.02C67.944 92.0987 68.1035 92.2441 68.2 92.43C68.3014 92.5982 68.3469 92.7943 68.33 92.99C68.3119 93.2078 68.2321 93.4159 68.1 93.59C67.921 93.8083 67.6999 93.9886 67.45 94.12C67.1982 94.2732 66.9201 94.3783 66.63 94.43Z" fill="#3C3C3B"/>
<path d="M69.1 89L68 89.78L67.72 89.39L70.31 87.54L70.59 87.93L69.52 88.7L71.52 91.44L71.08 91.76L69.1 89Z" fill="#3C3C3B"/>
<path d="M72.34 85.33C72.2435 85.3376 72.1465 85.3376 72.05 85.33H71.87C71.8491 85.3296 71.8284 85.3339 71.8093 85.3426C71.7903 85.3512 71.7734 85.364 71.76 85.38C71.7288 85.4026 71.7041 85.4329 71.6883 85.468C71.6725 85.5031 71.6662 85.5418 71.67 85.58C71.6723 85.6697 71.7079 85.7553 71.77 85.82L71.55 86.02C71.4331 85.8888 71.3597 85.7247 71.34 85.55C71.334 85.4761 71.3463 85.4017 71.376 85.3337C71.4057 85.2656 71.4517 85.206 71.51 85.16C71.5656 85.1007 71.6396 85.062 71.72 85.05C71.8163 85.038 71.9137 85.038 72.01 85.05H72.19C72.2259 85.0609 72.2641 85.0609 72.3 85.05C72.3292 85.0257 72.3525 84.9951 72.3681 84.9604C72.3837 84.9258 72.3912 84.888 72.39 84.85C72.3872 84.7634 72.3514 84.6812 72.29 84.62L72.51 84.42C72.6296 84.5444 72.7006 84.7077 72.71 84.88C72.7163 84.9531 72.7051 85.0266 72.6773 85.0945C72.6495 85.1623 72.6058 85.2225 72.55 85.27C72.4849 85.3044 72.4134 85.3248 72.34 85.33ZM75.16 87.2L73.63 88.56L73.96 89.56L73.53 89.93L72.27 85.93L72.68 85.57L76.55 87.28L76.12 87.67L75.16 87.2ZM74.73 87L72.85 86.14L73.48 88.14L74.73 87Z" fill="#3C3C3B"/>
<path d="M78.18 85.23C77.8601 85.3468 77.5144 85.3744 77.18 85.31C76.8319 85.2501 76.5088 85.0903 76.25 84.85C75.9781 84.6229 75.774 84.3254 75.66 83.99C75.5753 83.662 75.5753 83.318 75.66 82.99C75.7386 82.6195 75.9108 82.2752 76.16 81.99C76.3972 81.7133 76.6997 81.5002 77.04 81.37C77.3603 81.2555 77.7044 81.2245 78.04 81.28C78.3861 81.3517 78.707 81.5139 78.97 81.75C79.2419 81.9771 79.446 82.2746 79.56 82.61C79.6447 82.938 79.6447 83.282 79.56 83.61C79.4688 83.9626 79.2966 84.289 79.057 84.5633C78.8174 84.8376 78.5171 85.0522 78.18 85.19V85.23ZM79.05 83.58C79.1198 83.3349 79.1198 83.0751 79.05 82.83C78.9645 82.5777 78.8125 82.3531 78.61 82.18C78.4118 82.0034 78.1702 81.8827 77.91 81.83C77.6642 81.7652 77.4058 81.7652 77.16 81.83C76.9089 81.9229 76.6853 82.0777 76.51 82.28C76.3339 82.4837 76.2103 82.7275 76.15 82.99C76.0964 83.2398 76.1137 83.4995 76.2 83.74C76.2855 83.9923 76.4375 84.2169 76.64 84.39C76.8383 84.5666 77.0798 84.6873 77.34 84.74C77.5907 84.7899 77.8504 84.7691 78.09 84.68C78.3423 84.5895 78.5665 84.4344 78.74 84.23C78.8956 84.0424 79.0022 83.819 79.05 83.58Z" fill="#3C3C3B"/>
<path d="M83.66 76.35L82.66 78.12L83.28 78.97L82.99 79.46L80.51 76L80.79 75.53L85 76L84.7 76.5L83.66 76.35ZM83.18 76.29L81.13 76.05L82.34 77.73L83.18 76.29Z" fill="#3C3C3B"/>
<path d="M87.27 70.89L84.68 69.82L86.3 72L86.2 72.24L83.52 72.63L86.09 73.7L85.89 74.19L82.33 72.7L82.51 72.29L85.63 71.85L83.74 69.34L83.91 68.92L87.47 70.41L87.27 70.89Z" fill="#3C3C3B"/>
<path d="M87.47 64.49C87.6776 64.4199 87.9024 64.4199 88.11 64.49C88.256 64.5227 88.3918 64.5909 88.5051 64.6886C88.6185 64.7863 88.7061 64.9104 88.76 65.05C88.8748 65.4213 88.8748 65.8187 88.76 66.19L88.29 67.96L84.57 66.96L85 65.28C85.0651 64.9259 85.2442 64.6028 85.51 64.36C85.6192 64.2684 85.7498 64.2057 85.8896 64.1778C86.0294 64.1498 86.1739 64.1575 86.31 64.2C86.4888 64.2386 86.6523 64.329 86.78 64.46C86.9008 64.587 86.9809 64.7472 87.01 64.92C87.1087 64.7276 87.2713 64.5755 87.47 64.49ZM85.12 66.49L86.31 66.8L86.6 65.71C86.6703 65.4922 86.6703 65.2578 86.6 65.04C86.5668 64.9569 86.5145 64.8827 86.4473 64.8236C86.3801 64.7644 86.2999 64.7219 86.2133 64.6995C86.1266 64.6771 86.0359 64.6755 85.9484 64.6947C85.861 64.7139 85.7793 64.7534 85.71 64.81C85.5497 64.971 85.4417 65.1767 85.4 65.4L85.12 66.49ZM88.34 65.3C88.3075 65.2114 88.2526 65.1326 88.1808 65.0713C88.109 65.01 88.0226 64.9683 87.93 64.95C87.51 64.84 87.23 65.09 87.07 65.69L86.74 67L87.98 67.33L88.31 66.1C88.3962 65.8555 88.4066 65.5906 88.34 65.34V65.3Z" fill="#3C3C3B"/>
<path d="M85.7 61.94L85.79 61.4L89.6 62L89.51 62.55L85.7 61.94Z" fill="#3C3C3B"/>
<path d="M89.66 56.76H90.14L89.93 59.5401L86.09 59.26L86.29 56.55H86.77L86.61 58.71L87.79 58.8L87.93 57H88.4L88.25 58.93L89.49 59.0201L89.66 56.76Z" fill="#3C3C3B"/>
<path d="M86.18 51.39L90 51.22V51.67L87.23 54.11L90.15 54V54.55L86.3 54.72V54.27L89.07 51.83L86.2 51.96L86.18 51.39Z" fill="#3C3C3B"/>
<path d="M86.28 48.48L86.49 49.79L86.02 49.86L85.51 46.72L85.99 46.64L86.2 47.94L89.53 47.41L89.61 47.94L86.28 48.48Z" fill="#3C3C3B"/>
<path d="M87.36 42.2701L87.9 44.2701L88.9 44.42L89.05 44.9701L84.87 44.3L84.73 43.78L88 41.05L88.16 41.6101L87.36 42.2701ZM86.99 42.5801L85.38 43.8801L87.38 44.18L86.99 42.5801Z" fill="#3C3C3B"/>
<path d="M83.77 40.6399L83.57 40.1299L86.7 38.8799L85.93 36.9999L86.38 36.8199L87.38 39.2699L83.77 40.6399Z" fill="#3C3C3B"/>
</g>
<defs>
<clipPath id="clip0_202_1800">
<rect width="90.18" height="100" fill="white"/>
</clipPath>
</defs>
</svg>
