<svg width="300" height="100" viewBox="0 0 300 100" fill="none" xmlns="http://www.w3.org/2000/svg">
<g clip-path="url(#clip0_202_1713)">
<path d="M117.38 50C117.38 36.9 127 27.27 140.64 27.27C151.9 27.27 160.49 33.83 163.09 43.56C163.127 43.6957 163.132 43.8381 163.105 43.9761C163.078 44.1141 163.02 44.2441 162.935 44.3561C162.85 44.4681 162.74 44.5592 162.615 44.6222C162.489 44.6853 162.351 44.7188 162.21 44.72H156.86C155.541 44.6985 154.243 44.3873 153.057 43.8084C151.872 43.2295 150.828 42.3971 150 41.37C148.845 40.0411 147.408 38.9862 145.794 38.2822C144.18 37.5782 142.43 37.2426 140.67 37.3C133.25 37.3 128.37 42.65 128.37 50C128.37 57.35 133.25 62.7 140.67 62.7C142.43 62.7574 144.18 62.4219 145.794 61.7178C147.408 61.0138 148.845 59.959 150 58.63C150.831 57.5991 151.88 56.7643 153.071 56.1853C154.262 55.6062 155.566 55.2971 156.89 55.28H162.24C162.381 55.2813 162.519 55.3147 162.645 55.3778C162.77 55.4409 162.88 55.5319 162.965 55.6439C163.05 55.756 163.108 55.886 163.135 56.024C163.162 56.162 163.157 56.3043 163.12 56.44C160.52 66.17 151.93 72.73 140.67 72.73C127 72.73 117.38 63.1 117.38 50Z" fill="#003B4D"/>
<path d="M185.85 28.14H186.68C186.921 28.14 187.153 28.2359 187.323 28.4065C187.494 28.5772 187.59 28.8087 187.59 29.05V62.77C187.59 65.1808 186.632 67.4929 184.928 69.1976C183.223 70.9023 180.911 71.86 178.5 71.86H177.67C177.429 71.86 177.197 71.7641 177.027 71.5935C176.856 71.4228 176.76 71.1914 176.76 70.95V37.23C176.76 34.8192 177.718 32.5071 179.422 30.8024C181.127 29.0977 183.439 28.14 185.85 28.14Z" fill="#003B4D"/>
<path d="M201.22 50C201.22 36.9 210.85 27.27 224.48 27.27C234.88 27.27 243.02 32.87 246.25 41.4C246.303 41.5387 246.322 41.6882 246.305 41.8357C246.288 41.9833 246.236 42.1245 246.152 42.2474C246.068 42.3702 245.956 42.471 245.825 42.5411C245.694 42.6112 245.549 42.6486 245.4 42.65H237.69C236.853 42.6287 236.028 42.4409 235.264 42.0975C234.5 41.7541 233.812 41.2621 233.24 40.65C232.083 39.5249 230.711 38.6448 229.205 38.0623C227.7 37.4798 226.093 37.2069 224.48 37.26C217.06 37.26 212.18 42.61 212.18 49.96C212.18 57.31 217.06 62.66 224.48 62.66C229.97 62.66 233.84 60.45 235.85 56.18H229.59C227.527 56.18 225.548 55.3603 224.089 53.9013C222.63 52.4423 221.81 50.4634 221.81 48.4C221.81 48.1587 221.906 47.9272 222.077 47.7566C222.247 47.5859 222.479 47.49 222.72 47.49H246.77C247.011 47.49 247.243 47.5859 247.413 47.7566C247.584 47.9272 247.68 48.1587 247.68 48.4V52.23C246.61 64.13 237.32 72.69 224.48 72.69C210.85 72.73 201.22 63.1 201.22 50Z" fill="#003B4D"/>
<path d="M261.32 46.46C261.32 34.56 268.07 27.27 280.5 27.27C292.93 27.27 299.82 34.56 299.82 46.46V71C299.82 71.2414 299.724 71.4728 299.554 71.6435C299.383 71.8141 299.151 71.91 298.91 71.91H298.08C296.883 71.9087 295.698 71.671 294.593 71.2105C293.488 70.7499 292.485 70.0757 291.641 69.2264C290.798 68.3772 290.13 67.3696 289.677 66.2617C289.223 65.1537 288.993 63.9671 289 62.77V59.43H271.88V62.77C271.88 65.1808 270.922 67.4929 269.218 69.1976C267.513 70.9023 265.201 71.86 262.79 71.86H262.23C261.989 71.86 261.757 71.7641 261.587 71.5935C261.416 71.4228 261.32 71.1914 261.32 70.95V46.46ZM288.08 50.07C288.2 50.07 288.318 50.0465 288.428 50.0007C288.539 49.955 288.639 49.888 288.724 49.8035C288.808 49.719 288.875 49.6187 288.921 49.5083C288.967 49.3979 288.99 49.2795 288.99 49.16V46.46C288.99 40.46 286.38 37.3 280.43 37.3C274.48 37.3 271.88 40.44 271.88 46.46V49.16C271.88 49.2795 271.904 49.3979 271.949 49.5083C271.995 49.6187 272.062 49.719 272.147 49.8035C272.231 49.888 272.331 49.955 272.442 50.0007C272.552 50.0465 272.671 50.07 272.79 50.07H288.08Z" fill="#003B4D"/>
<path d="M51.76 25.84H38.34C38.4601 24.8223 38.8073 23.8447 39.356 22.9792C39.9047 22.1138 40.6408 21.3827 41.51 20.84L41.69 20.74C42.7148 20.1598 43.8723 19.8549 45.05 19.8549C46.2276 19.8549 47.3852 20.1598 48.41 20.74L48.59 20.85C49.4591 21.3927 50.1953 22.1238 50.7439 22.9892C51.2926 23.8547 51.6398 24.8323 51.76 25.85V25.84Z" fill="#F0D283"/>
<path d="M83 25.34H64.47C63.625 25.3416 62.7887 25.5116 62.01 25.84H53.26C53.1695 24.9023 52.9227 23.9863 52.53 23.13L66.07 15.31L81.32 24.11C81.9255 24.454 82.4892 24.8667 83 25.34Z" fill="#A1D683"/>
<path d="M64.58 14.45L51.77 21.84C51.2244 21.0624 50.5476 20.3856 49.77 19.84L55.77 9.37L64.58 14.45Z" fill="#A2D9E7"/>
<path d="M54.5399 8.65998L48.5399 19.11C47.6814 18.7154 46.7613 18.4719 45.8199 18.39V4.53998C47.0681 4.64085 48.2777 5.02014 49.3599 5.64998L54.5399 8.65998Z" fill="#A2D9E7"/>
<path d="M44.31 4.53998V18.39C43.3698 18.472 42.4502 18.712 41.59 19.1L35.59 8.65998L40.8 5.65998C41.8724 5.03088 43.0714 4.6483 44.31 4.53998Z" fill="#A2D9E7"/>
<path d="M40.3 19.86C39.5235 20.4069 38.8469 21.0835 38.3 21.86L25.53 14.45L31.53 10.99L34.27 9.40002L40.3 19.86Z" fill="#A2D9E7"/>
<path d="M37.57 23.13C37.1772 23.9856 36.9336 24.9022 36.85 25.84H6.67004C7.28138 25.1555 7.99683 24.5716 8.79004 24.11L24 15.31L24.37 15.53L37.57 23.13Z" fill="#A1D683"/>
<path d="M23.77 63.43C23.7287 63.4579 23.6917 63.4916 23.66 63.53L20.91 66.29L16.16 71C15.4143 71.663 14.4663 72.0542 13.47 72.11H5.33001C4.78184 70.9679 4.49815 69.7169 4.50001 68.45V62L5.27001 61.59C7.2846 60.3295 9.62417 59.6864 12 59.74C14.3849 59.6781 16.7355 60.3179 18.76 61.58C20.2958 62.5124 21.9968 63.1405 23.77 63.43Z" fill="#5FD0DF"/>
<path d="M85.61 31.54V35.48H80.54C78.9883 35.481 77.4907 36.0502 76.33 37.08C76.33 37.08 76.24 37.16 67.43 45.98L57.28 56.12L47.15 66.26L32.26 81.15C31.5404 81.8671 30.566 82.2698 29.55 82.27H19.84L8.84003 75.89C8.22915 75.5385 7.66475 75.1119 7.16003 74.62H13.52C15.1463 74.5661 16.7012 73.9391 17.91 72.85C17.91 72.85 19.75 71 22.68 68.09L25.43 65.33L32.49 58.28L43.36 47.37C46.36 44.37 49.36 41.37 51.92 38.79L61.77 29C62.1232 28.6434 62.5438 28.3607 63.0074 28.1684C63.471 27.9761 63.9682 27.8781 64.47 27.88H84.76C85.3122 29.0215 85.6026 30.2719 85.61 31.54Z" fill="#D9D8D6"/>
<path d="M40.48 46.72L30.72 56.48L25.12 62.07C23.1249 61.9369 21.1923 61.3191 19.49 60.27C17.2447 58.8977 14.6507 58.2032 12.02 58.27C9.38959 58.2049 6.7961 58.8993 4.55005 60.27V49L5.32005 48.59C7.31919 47.3331 9.63879 46.6803 12 46.71C14.3843 46.6533 16.7334 47.2927 18.76 48.55C21.0054 49.9223 23.5994 50.6168 26.23 50.55C28.8605 50.6151 31.454 49.9207 33.7001 48.55C35.7267 47.2927 38.0758 46.6533 40.46 46.71L40.48 46.72Z" fill="#5FD0DF"/>
<path d="M50.28 36.92L50.16 37.03L41.92 45.28C41.4667 45.24 40.9867 45.22 40.48 45.22C37.8488 45.148 35.2534 45.8429 33.01 47.22C30.983 48.4762 28.6342 49.1155 26.25 49.06C23.8658 49.1167 21.5167 48.4773 19.49 47.22C17.2467 45.8429 14.6513 45.148 12.02 45.22C9.38898 45.1498 6.79406 45.8445 4.55005 47.22V35.93L5.32005 35.52C7.32348 34.2771 9.64278 33.6383 12 33.68C14.3843 33.6233 16.7334 34.2627 18.76 35.52C21.0034 36.897 23.5988 37.5919 26.23 37.52C28.8611 37.5902 31.456 36.8954 33.7001 35.52C35.7267 34.2627 38.0758 33.6233 40.46 33.68C42.841 33.6247 45.1865 34.264 47.21 35.52C48.1873 36.0817 49.2151 36.5505 50.28 36.92Z" fill="#5FD0DF"/>
<path d="M59.8601 27.33L51.4901 35.7C50.2433 35.3705 49.0485 34.869 47.9401 34.21C45.6978 32.839 43.1074 32.1446 40.4801 32.21C37.8494 32.1432 35.2554 32.8377 33.01 34.21C30.9848 35.4705 28.6347 36.1102 26.2501 36.05C23.8651 36.1119 21.5146 35.4721 19.4901 34.21C17.2447 32.8377 14.6507 32.1432 12.0201 32.21C9.38959 32.1449 6.79611 32.8393 4.55005 34.21V31.51C4.54873 30.0341 4.93125 28.5833 5.66005 27.3L59.8601 27.33Z" fill="#5FD0DF"/>
<path d="M85.6101 38V46.15H70.8101L78.0001 38.94C78.7028 38.3055 79.6133 37.9498 80.5601 37.94L85.6101 38Z" fill="#DEA36D"/>
<path d="M85.61 47.61V56.26H60.67L69.19 47.74L69.32 47.61H85.61Z" fill="#DEA36D"/>
<path d="M85.61 57.75V66.39H50.54L59 57.88L59.14 57.75H85.61Z" fill="#DEA36D"/>
<path d="M85.61 67.88V68.47C85.6082 69.9743 85.2109 71.4517 84.4579 72.754C83.7049 74.0564 82.6228 75.1378 81.32 75.89L80.21 76.53H40.4L48.91 68L49.04 67.86L85.61 67.88Z" fill="#DEA36D"/>
<path d="M77.63 78L62.63 86.65H27.44L26.3 86L24.15 84.75H29.55C31.2168 84.7517 32.8166 84.0938 34 82.92L38.91 78H77.63Z" fill="#DEA36D"/>
<path d="M60.07 88.16L49.34 94.36C48.0375 95.1132 46.5596 95.5097 45.055 95.5097C43.5504 95.5097 42.0725 95.1132 40.77 94.36L30 88.16H60.07Z" fill="#DEA36D"/>
<path d="M83.57 20.22L51.57 1.76C49.5854 0.605968 47.3307 -0.00195312 45.035 -0.00195312C42.7393 -0.00195313 40.4846 0.605968 38.5 1.76L6.5 20.22C4.52151 21.3739 2.88015 23.0265 1.73963 25.0127C0.599105 26.999 -0.000713003 29.2496 6.3605e-07 31.54V68.47C0.00536891 70.7639 0.612081 73.0163 1.75962 75.0026C2.90716 76.9889 4.55542 78.6395 6.54 79.79L38.54 98.25C40.5272 99.3962 42.7809 99.9995 45.075 99.9995C47.3691 99.9995 49.6228 99.3962 51.61 98.25L83.61 79.79C85.5946 78.6395 87.2428 76.9889 88.3904 75.0026C89.5379 73.0163 90.1446 70.7639 90.15 68.47V31.54C90.1426 29.2418 89.5307 26.9859 88.3757 24.999C87.2207 23.012 85.5634 21.3638 83.57 20.22ZM81.32 24.11C81.9255 24.454 82.4892 24.8667 83 25.34H64.47C63.6249 25.3416 62.7886 25.5116 62.01 25.84H53.26C53.1694 24.9023 52.9227 23.9863 52.53 23.13L66.07 15.31L81.32 24.11ZM64.58 14.45L51.77 21.84C51.2244 21.0624 50.5476 20.3856 49.77 19.84L55.77 9.37L64.58 14.45ZM45.8 4.54C47.0481 4.64087 48.2578 5.02016 49.34 5.65L54.54 8.65L48.54 19.1C47.6815 18.7055 46.7613 18.4619 45.82 18.38L45.8 4.54ZM48.41 20.73L48.59 20.84C49.4592 21.3827 50.1953 22.1138 50.744 22.9793C51.2927 23.8447 51.6399 24.8224 51.76 25.84H38.34C38.4601 24.8224 38.8073 23.8447 39.356 22.9793C39.9047 22.1138 40.6408 21.3827 41.51 20.84L41.69 20.74C42.7148 20.1598 43.8724 19.8549 45.05 19.8549C46.2276 19.8549 47.3852 20.1598 48.41 20.74V20.73ZM40.77 5.65C41.8522 5.02016 43.0619 4.64087 44.31 4.54V18.39C43.3699 18.472 42.4503 18.712 41.59 19.1L35.59 8.66L40.77 5.65ZM25.53 14.44L31.53 10.98L34.27 9.4L40.27 19.86C39.4934 20.4069 38.8169 21.0834 38.27 21.86L25.53 14.45V14.44ZM8.79 24.11L24 15.31L24.37 15.53L37.53 23.14C37.1371 23.9956 36.8936 24.9122 36.81 25.85H6.67C7.28058 25.1619 7.99607 24.5747 8.79 24.11ZM4.5 31.54C4.49868 30.0642 4.8812 28.6133 5.61 27.33H59.86L51.49 35.7C50.2432 35.3705 49.0484 34.869 47.94 34.21C45.6977 32.8391 43.1074 32.1446 40.48 32.21C37.8493 32.1432 35.2554 32.8377 33.01 34.21C30.9848 35.4705 28.6347 36.1102 26.25 36.05C23.8651 36.1119 21.5145 35.4721 19.49 34.21C17.2446 32.8377 14.6507 32.1432 12.02 32.21C9.38954 32.1449 6.79605 32.8393 4.55 34.21L4.5 31.54ZM4.5 35.93L5.27 35.52C7.28779 34.2678 9.62581 33.6286 12 33.68C14.3843 33.6233 16.7334 34.2627 18.76 35.52C21.0033 36.8971 23.5987 37.5919 26.23 37.52C28.8611 37.5902 31.456 36.8955 33.7 35.52C35.7266 34.2627 38.0757 33.6233 40.46 33.68C42.841 33.6247 45.1865 34.2641 47.21 35.52C48.1809 36.0806 49.202 36.5493 50.26 36.92L50.14 37.03L41.9 45.28C41.4467 45.24 40.9667 45.22 40.46 45.22C37.8287 45.1481 35.2333 45.8429 32.99 47.22C30.9629 48.4762 28.6141 49.1155 26.23 49.06C23.8457 49.1167 21.4966 48.4773 19.47 47.22C17.2267 45.8429 14.6313 45.1481 12 45.22C9.36893 45.1498 6.77401 45.8445 4.53 47.22L4.5 35.93ZM4.5 48.93L5.27 48.52C7.29101 47.2783 9.62881 46.6496 12 46.71C14.3843 46.6533 16.7334 47.2927 18.76 48.55C21.0054 49.9223 23.5993 50.6168 26.23 50.55C28.8605 50.6151 31.4539 49.9207 33.7 48.55C35.7266 47.2927 38.0757 46.6533 40.46 46.71L30.7 56.47L25.1 62.06C23.1048 61.9269 21.1723 61.3091 19.47 60.26C17.2246 58.8877 14.6307 58.1932 12 58.26C9.36954 58.1949 6.77606 58.8893 4.53 60.26L4.5 48.93ZM5.33 72.1C4.78183 70.9579 4.49814 69.7069 4.5 68.44V62L5.27 61.59C7.28459 60.3295 9.62416 59.6864 12 59.74C14.3849 59.6781 16.7355 60.3179 18.76 61.58C20.2928 62.5112 21.9902 63.1393 23.76 63.43C23.7187 63.4579 23.6817 63.4916 23.65 63.53L20.9 66.29L16.16 71C15.4143 71.663 14.4663 72.0542 13.47 72.11L5.33 72.1ZM49.33 94.33C48.0275 95.0832 46.5495 95.4797 45.045 95.4797C43.5404 95.4797 42.0625 95.0832 40.76 94.33L30 88.16H60L49.33 94.33ZM62.65 86.64H27.44L26.3 86L24.15 84.75H29.55C31.2168 84.7517 32.8166 84.0938 34 82.92L38.91 78H77.63L62.65 86.64ZM85.65 68.44C85.6482 69.9443 85.2508 71.4217 84.4979 72.724C83.7449 74.0264 82.6628 75.1078 81.36 75.86L80.25 76.5H40.4L48.91 68L49.04 67.86H85.61L85.65 68.44ZM85.65 66.36H50.54L59 57.88L59.14 57.75H85.61L85.65 66.36ZM85.65 56.23H60.67L69.19 47.71L69.32 47.58H85.61L85.65 56.23ZM85.65 46.09H70.81L78 38.94C78.7027 38.3055 79.6132 37.9498 80.56 37.94H85.63L85.65 46.09ZM85.65 35.45H80.54C78.9883 35.451 77.4907 36.0202 76.33 37.05C76.33 37.05 76.24 37.13 67.43 45.95L57.28 56.12L47.15 66.26L32.26 81.15C31.5404 81.8671 30.5659 82.2698 29.55 82.27H19.84L8.84 75.89C8.22912 75.5386 7.66471 75.1119 7.16 74.62H13.52C15.1463 74.5661 16.7011 73.9392 17.91 72.85C17.91 72.85 19.75 71 22.68 68.09L25.43 65.33L32.49 58.28L43.36 47.37C46.36 44.37 49.36 41.37 51.92 38.79L61.77 29C62.1232 28.6434 62.5438 28.3607 63.0074 28.1684C63.4709 27.9762 63.9681 27.8781 64.47 27.88H84.76C85.3195 29.0367 85.6101 30.3051 85.61 31.59L85.65 35.45Z" fill="#003B4D"/>
</g>
<defs>
<clipPath id="clip0_202_1713">
<rect width="299.82" height="100" fill="white"/>
</clipPath>
</defs>
</svg>
