<svg width="85" height="95" viewBox="0 0 85 95" fill="none" xmlns="http://www.w3.org/2000/svg">
<g clip-path="url(#clip0_202_2089)">
<path d="M48.8288 24.5221H36.1713C36.2789 23.5617 36.603 22.6384 37.1192 21.8215C37.6354 21.0046 38.3303 20.3156 39.1515 19.8062H39.2989C40.281 19.1934 41.4161 18.8699 42.5738 18.8729C43.6828 18.8646 44.7739 19.1529 45.734 19.708L45.8487 19.8062C46.7494 20.3547 47.4982 21.1203 48.0265 22.0331C48.4623 22.7987 48.7354 23.646 48.8288 24.5221Z" fill="#CAC9C9"/>
<path d="M78.2373 24.0635H60.8148C60.0173 24.0634 59.2275 24.2192 58.4897 24.5219H50.3024C50.2224 23.6424 49.9897 22.7835 49.6147 21.9839L62.3868 14.599L76.7636 22.9009C77.3001 23.2274 77.7949 23.6177 78.2373 24.0635Z" fill="#ABABAB"/>
<path d="M60.9131 13.7803L48.8288 20.7558C48.319 20.0359 47.6938 19.4052 46.9785 18.8891L52.6768 9.06445L60.9131 13.7803Z" fill="#C0C0C0"/>
<path d="M51.4486 8.34398L45.8486 18.1687C45.0397 17.7873 44.169 17.5544 43.2778 17.4809V4.38135C44.4301 4.50065 45.5452 4.85748 46.5527 5.42932L51.4486 8.34398Z" fill="#C0C0C0"/>
<path d="M41.7877 4.43054V17.5301C40.9283 17.6029 40.0871 17.8188 39.2988 18.1687L33.5513 8.34405L38.4637 5.49488C39.4869 4.91568 40.6184 4.55338 41.7877 4.43054Z" fill="#C0C0C0"/>
<path d="M38.0216 18.8892C37.2937 19.3959 36.6616 20.028 36.1549 20.7559L24.0869 13.7804L29.7525 10.5055L32.3233 9.01538L38.0216 18.8892Z" fill="#C0C0C0"/>
<path d="M35.4344 21.984C35.072 22.7871 34.8451 23.6448 34.7631 24.5221H6.28784C6.86917 23.8806 7.54238 23.3287 8.28553 22.8846L22.6623 14.5828L23.0226 14.7793L35.4344 21.984Z" fill="#ABABAB"/>
<path d="M22.4167 59.9891L22.3185 60.0874L19.6494 62.6909L15.2447 67.1448C14.5431 67.7736 13.6475 68.1434 12.7066 68.1928H5.027C4.51081 67.1141 4.24227 65.9336 4.24103 64.7377V58.6301L4.91238 58.2534C6.82412 57.0596 9.0454 56.4559 11.2984 56.5178C13.5459 56.4591 15.7611 57.0627 17.6681 58.2534C19.1296 59.1215 20.7399 59.7101 22.4167 59.9891Z" fill="#A7A7A7"/>
<path d="M80.7427 29.9092V33.6262H75.9613C74.5013 33.6303 73.0927 34.1658 71.9987 35.1327L63.5986 43.5328C60.7658 46.3492 57.4581 49.6732 54.0359 53.0955L44.4732 62.6582L30.4238 76.7075C29.7433 77.3792 28.8256 77.7557 27.8694 77.7555H18.7161L8.28552 71.7461C7.69283 71.4161 7.1429 71.0147 6.64807 70.5507H12.7066C14.2364 70.5057 15.7022 69.9263 16.8494 68.9133L21.3524 64.4267L23.9395 61.8231L30.604 55.1751L40.9363 44.8428L49.0089 36.7538L58.2932 27.4694C58.6193 27.1267 59.01 26.8518 59.4428 26.6607C59.8756 26.4696 60.3419 26.366 60.8149 26.356H79.9567C80.4819 27.4664 80.7505 28.6808 80.7427 29.9092Z" fill="#D7D7D7"/>
<path d="M38.1853 44.2206L28.9665 53.423L23.6939 58.6956C21.818 58.5929 19.9961 58.0305 18.3885 57.0582C16.2719 55.7637 13.828 55.1044 11.3475 55.1587C8.86159 55.1022 6.41183 55.7615 4.2901 57.0582V46.3329L4.91233 46.0054C6.82407 44.8116 9.04535 44.2078 11.2984 44.2697C13.5625 44.2013 15.7961 44.8053 17.7172 46.0054C19.8316 47.305 22.2771 47.9647 24.7582 47.9048C27.2394 47.9647 29.6848 47.305 31.7992 46.0054C33.711 44.8116 35.9323 44.2078 38.1853 44.2697V44.2206Z" fill="#A7A7A7"/>
<path d="M47.486 34.9852L47.3714 35.0834L39.5935 42.8613C39.1678 42.8613 38.7257 42.8613 38.2344 42.8613C35.7313 42.7774 33.2574 43.42 31.1115 44.7116C29.2045 45.9024 26.9894 46.506 24.7419 46.4473C22.4944 46.506 20.2792 45.9024 18.3722 44.7116C16.2555 43.4172 13.8116 42.7579 11.3312 42.8122C8.84523 42.7557 6.39547 43.415 4.27374 44.7116V34.0519L4.91235 33.6589C6.82907 32.4765 9.04686 31.8737 11.2984 31.9232C13.5449 31.8731 15.7576 32.4761 17.6681 33.6589C19.7795 34.9655 22.227 35.6258 24.7091 35.5583C27.1912 35.6258 29.6388 34.9655 31.7501 33.6589C33.6669 32.4765 35.8847 31.8737 38.1362 31.9232C40.3827 31.8731 42.5954 32.4761 44.5059 33.6589C45.4505 34.2032 46.4493 34.6477 47.486 34.9852Z" fill="#A7A7A7"/>
<path d="M56.4593 25.9465L48.5667 33.839C47.418 33.5156 46.3168 33.0422 45.2919 32.4308C43.1807 31.122 40.7341 30.4563 38.2508 30.515C35.7345 30.4379 33.2512 31.1043 31.1115 32.4308C29.2022 33.6163 26.9887 34.2194 24.7419 34.1665C22.4951 34.2194 20.2816 33.6163 18.3722 32.4308C16.261 31.122 13.8144 30.4563 11.3312 30.515C8.84247 30.454 6.38997 31.1198 4.27374 32.4308V29.9092C4.27484 28.5199 4.6359 27.1547 5.32171 25.9465H56.4593Z" fill="#A7A7A7"/>
<path d="M80.7426 35.9678V43.6638H66.7915L73.5542 36.8847C74.2185 36.2968 75.0741 35.9709 75.9612 35.9678H80.7426Z" fill="#939393"/>
<path d="M80.7426 45.0721V53.2594H57.3107L65.3506 45.2195C65.3846 45.1773 65.423 45.1389 65.4652 45.1049L80.7426 45.0721Z" fill="#939393"/>
<path d="M80.7426 54.6348V62.822H47.6661L55.6896 54.7985L55.8206 54.6839L80.7426 54.6348Z" fill="#939393"/>
<path d="M80.7426 64.181V64.7378C80.7432 66.1582 80.3697 67.5537 79.6597 68.784C78.9497 70.0142 77.9283 71.0358 76.6981 71.7461L75.6665 72.3355H38.1035L46.1433 64.312L46.258 64.181H80.7426Z" fill="#939393"/>
<path d="M73.2267 73.842L59.0955 82.0293H25.888L24.8073 81.4071L22.7769 80.2445H27.8366C29.4214 80.2437 30.941 79.6134 32.0612 78.4924L36.6952 73.842H73.2267Z" fill="#939393"/>
<path d="M56.6558 83.3229L46.5363 89.1522C45.3321 89.8494 43.9652 90.2165 42.5737 90.2165C41.1519 90.2172 39.7558 89.8384 38.5292 89.1194L28.3279 83.3229H56.6558Z" fill="#939393"/>
<path d="M78.8268 19.233L48.665 1.79421C46.7911 0.710425 44.6647 0.139771 42.5 0.139771C40.3353 0.139771 38.2088 0.710425 36.335 1.79421L6.17316 19.233C4.29864 20.3153 2.74158 21.8713 1.6581 23.7452C0.574618 25.619 0.00279997 27.7447 -2.34435e-05 29.9092V64.7378C-0.00871836 66.9134 0.557637 69.0527 1.64169 70.939C2.72575 72.8253 4.289 74.3916 6.17316 75.4794L36.335 92.8364C38.2088 93.9202 40.3353 94.4908 42.5 94.4908C44.6647 94.4908 46.7911 93.9202 48.665 92.8364L78.8268 75.4794C80.6991 74.3947 82.2543 72.8381 83.3375 70.9648C84.4206 69.0916 84.9939 66.9671 85 64.8033V29.9092C84.9939 27.7454 84.4206 25.6209 83.3375 23.7477C82.2543 21.8744 80.6991 20.3178 78.8268 19.233ZM76.6981 22.9009C77.2575 23.223 77.7746 23.6135 78.2373 24.0635H60.8148C60.0173 24.0635 59.2275 24.2192 58.4897 24.522H50.3024C50.2224 23.6425 49.9897 22.7836 49.6147 21.984L62.3868 14.5991L76.6981 22.9009ZM60.9131 13.7803L48.8287 20.7559C48.319 20.036 47.6938 19.4052 46.9784 18.8892L52.6767 9.06449L60.9131 13.7803ZM43.1959 4.43051C44.3482 4.54981 45.4633 4.90664 46.4708 5.47848L51.3831 8.32764L45.8486 18.1687C45.0397 17.7874 44.169 17.5544 43.2778 17.481L43.1959 4.43051ZM45.6521 19.7079L45.8486 19.8062C46.7493 20.3546 47.4981 21.1203 48.0264 22.0331C48.4658 22.7925 48.7445 23.6341 48.8451 24.5056H36.1712C36.2812 23.5482 36.6064 22.6281 37.1225 21.8142C37.6386 21.0003 38.3322 20.3138 39.1514 19.8062H39.2988C40.2809 19.1933 41.416 18.8698 42.5737 18.8728C43.6549 18.879 44.7159 19.1668 45.6521 19.7079ZM38.4473 5.47848C39.4568 4.91134 40.5709 4.55483 41.7222 4.43051V17.5301C40.8851 17.61 40.0665 17.8257 39.2988 18.1687L33.5513 8.34401L38.4473 5.47848ZM24.0869 13.7803L29.7524 10.5054L32.3232 9.01537L38.0216 18.8401C37.2936 19.3468 36.6616 19.9788 36.1549 20.7068L24.0869 13.7803ZM8.28547 22.9009L22.6623 14.5991L23.0225 14.7956L35.4344 21.984C35.0719 22.7871 34.8451 23.6447 34.763 24.522H6.28778C6.87027 23.8863 7.54343 23.34 8.28547 22.9009ZM4.24097 29.9092C4.24207 28.52 4.60313 27.1547 5.28894 25.9466H56.4592L48.5667 33.8391C47.4179 33.5157 46.3168 33.0422 45.2918 32.4309C43.1807 31.122 40.7341 30.4563 38.2508 30.5151C35.7344 30.438 33.2512 31.1044 31.1115 32.4309C29.2021 33.6163 26.9886 34.2195 24.7418 34.1666C22.495 34.2195 20.2815 33.6163 18.3722 32.4309C16.261 31.122 13.8144 30.4563 11.3311 30.5151C8.84244 30.4541 6.38994 31.1198 4.27372 32.4309L4.24097 29.9092ZM4.24097 34.052L4.91232 33.659C6.82905 32.4766 9.04684 31.8738 11.2984 31.9233C13.5448 31.8732 15.7575 32.4762 17.6681 33.659C19.7794 34.9656 22.227 35.6259 24.7091 35.5584C27.1912 35.6259 29.6387 34.9656 31.7501 33.659C33.6668 32.4766 35.8846 31.8738 38.1362 31.9233C40.3826 31.8732 42.5953 32.4762 44.5059 33.659C45.4193 34.1972 46.3848 34.6416 47.3878 34.9853L47.2731 35.0836L39.4953 42.8614C39.0695 42.8614 38.6274 42.8614 38.1362 42.8614C35.6662 42.7964 33.229 43.4384 31.1115 44.7118C29.2045 45.9025 26.9893 46.5061 24.7418 46.4475C22.4943 46.5061 20.2792 45.9025 18.3722 44.7118C16.2555 43.4173 13.8116 42.758 11.3311 42.8123C8.84521 42.7558 6.39544 43.4151 4.27372 44.7118L4.24097 34.052ZM4.24097 46.3328L4.91232 46.0053C6.82406 44.8115 9.04534 44.2078 11.2984 44.2696C13.5625 44.2013 15.7961 44.8053 17.7172 46.0053C19.8316 47.305 22.277 47.9647 24.7582 47.9048C27.2394 47.9647 29.6848 47.305 31.7992 46.0053C33.711 44.8115 35.9323 44.2078 38.1853 44.2696L28.9665 53.4721L23.6939 58.7447C21.818 58.6419 19.9961 58.0796 18.3885 57.1073C16.2719 55.8128 13.828 55.1535 11.3475 55.2078C8.86158 55.1513 6.41182 55.8106 4.29009 57.1073L4.24097 46.3328ZM5.02695 68.1928C4.51075 67.1141 4.24221 65.9336 4.24097 64.7378V58.6301L4.91232 58.2535C6.82406 57.0596 9.04534 56.4559 11.2984 56.5178C13.5459 56.4591 15.761 57.0627 17.6681 58.2535C19.1146 59.1159 20.7077 59.7043 22.3675 59.9892L22.2693 60.0874L19.6494 62.691L15.2446 67.1448C14.5431 67.7736 13.6474 68.1435 12.7066 68.1928H5.02695ZM46.5363 89.1521C45.332 89.8493 43.9652 90.2165 42.5737 90.2165C41.1519 90.2171 39.7557 89.8384 38.5292 89.1194L28.3279 83.3228H56.6557L46.5363 89.1521ZM59.0955 81.8982H25.8881L24.8073 81.276L22.7769 80.1134H27.8366C29.4214 80.1126 30.941 79.4824 32.0612 78.3613L36.6952 73.842H73.2267L59.0955 81.8982ZM80.7426 64.7378C80.7431 66.1582 80.3696 67.5537 79.6596 68.784C78.9497 70.0142 77.9282 71.0358 76.6981 71.7461L75.6665 72.3355H38.1034L46.1433 64.312L46.2579 64.181H80.7426V64.7378ZM80.7426 62.7728H47.6661L55.6896 54.7493L55.8206 54.6347H80.7426V62.7728ZM80.7426 53.2265H57.3107L65.3506 45.1866C65.3846 45.1444 65.423 45.106 65.4652 45.072H80.8245L80.7426 53.2265ZM80.7426 43.6638H66.7915L73.5542 36.8848C74.2185 36.2969 75.0742 35.9709 75.9613 35.9678H80.7426V43.6638ZM80.7426 33.6262H75.9613C74.5012 33.6303 73.0927 34.1658 71.9986 35.1327L63.5985 43.5328C60.7657 46.3492 57.4581 49.6732 54.0358 53.0955L44.4731 62.6582L30.4238 76.7075C29.7433 77.3792 28.8255 77.7557 27.8694 77.7555H18.716L8.28547 71.7461C7.69278 71.4161 7.14285 71.0147 6.64802 70.5507H12.7066C14.2364 70.5057 15.7021 69.9263 16.8493 68.9133L21.3523 64.4267L23.9395 61.8231L30.6039 55.1751L40.9362 44.8428L49.0088 36.7538L58.2932 27.4694C58.6193 27.1267 59.01 26.8518 59.4427 26.6607C59.8755 26.4696 60.3419 26.366 60.8148 26.356H79.9566C80.4747 27.4514 80.7432 28.6483 80.7426 29.8601V33.6262Z" fill="#3C3C3B"/>
</g>
<defs>
<clipPath id="clip0_202_2089">
<rect width="85" height="94.3335" fill="white" transform="translate(0 0.156738)"/>
</clipPath>
</defs>
</svg>
