<svg width="300" height="100" viewBox="0 0 300 100" fill="none" xmlns="http://www.w3.org/2000/svg">
<g clip-path="url(#clip0_202_1388)">
<path d="M117.38 34.31C117.38 21.21 127 11.58 140.64 11.58C151.9 11.58 160.49 18.14 163.09 27.87C163.127 28.0057 163.132 28.1481 163.105 28.2861C163.078 28.4241 163.02 28.5541 162.935 28.6661C162.85 28.7781 162.74 28.8691 162.615 28.9322C162.489 28.9953 162.351 29.0288 162.21 29.03H156.86C155.541 29.0085 154.243 28.6973 153.057 28.1184C151.872 27.5395 150.828 26.7071 150 25.68C148.845 24.3511 147.408 23.2962 145.794 22.5922C144.18 21.8882 142.43 21.5526 140.67 21.61C133.25 21.61 128.37 26.96 128.37 34.31C128.37 41.66 133.22 47 140.64 47C142.404 47.0631 144.16 46.7314 145.779 46.0289C147.399 45.3265 148.841 44.2712 150 42.94C150.831 41.9091 151.88 41.0743 153.071 40.4953C154.262 39.9162 155.566 39.6071 156.89 39.59H162.24C162.382 39.5908 162.521 39.6244 162.648 39.6881C162.775 39.7517 162.885 39.8437 162.97 39.957C163.055 40.0702 163.113 40.2016 163.139 40.3409C163.165 40.4802 163.159 40.6236 163.12 40.76C160.49 50.48 151.9 57 140.64 57C127 57 117.38 47.41 117.38 34.31Z" fill="#003B4D"/>
<path d="M185.85 12.45H186.68C186.921 12.45 187.153 12.5459 187.323 12.7165C187.494 12.8872 187.59 13.1187 187.59 13.36V47.08C187.59 49.4908 186.632 51.8029 184.928 53.5076C183.223 55.2123 180.911 56.17 178.5 56.17H177.67C177.429 56.17 177.197 56.0741 177.027 55.9035C176.856 55.7328 176.76 55.5014 176.76 55.26V21.54C176.76 19.1292 177.718 16.8171 179.422 15.1124C181.127 13.4077 183.439 12.45 185.85 12.45Z" fill="#003B4D"/>
<path d="M201.22 34.31C201.22 21.21 210.85 11.58 224.48 11.58C234.88 11.58 243.02 17.18 246.25 25.71C246.312 25.8506 246.337 26.0045 246.324 26.1576C246.311 26.3106 246.26 26.458 246.176 26.5862C246.091 26.7145 245.976 26.8196 245.841 26.8918C245.705 26.9641 245.554 27.0013 245.4 27H237.69C236.853 26.9787 236.028 26.7909 235.264 26.4475C234.5 26.1041 233.812 25.6121 233.24 25C232.083 23.8749 230.711 22.9948 229.205 22.4123C227.7 21.8298 226.093 21.5569 224.48 21.61C217.06 21.61 212.18 26.96 212.18 34.31C212.18 41.66 217.06 47 224.48 47C229.97 47 233.84 44.8 235.85 40.52H229.59C227.527 40.52 225.548 39.7003 224.089 38.2413C222.63 36.7823 221.81 34.8034 221.81 32.74C221.81 32.4987 221.906 32.2672 222.077 32.0966C222.247 31.9259 222.479 31.83 222.72 31.83H246.77C247.011 31.83 247.243 31.9259 247.413 32.0966C247.584 32.2672 247.68 32.4987 247.68 32.74V36.57C246.61 48.48 237.32 57 224.48 57C210.85 57 201.22 47.41 201.22 34.31Z" fill="#003B4D"/>
<path d="M261.32 30.77C261.32 18.87 268.07 11.58 280.5 11.58C292.93 11.58 299.82 18.87 299.82 30.77V55.26C299.82 55.5014 299.724 55.7328 299.554 55.9035C299.383 56.0741 299.151 56.17 298.91 56.17H298.08C295.671 56.1674 293.361 55.2085 291.659 53.5041C289.956 51.7997 289 49.4891 289 47.08V43.74H271.88V47.08C271.88 49.4908 270.922 51.8029 269.218 53.5076C267.513 55.2123 265.201 56.17 262.79 56.17H262.23C261.989 56.17 261.757 56.0741 261.587 55.9035C261.416 55.7328 261.32 55.5014 261.32 55.26V30.77ZM288.08 34.38C288.2 34.38 288.318 34.3565 288.428 34.3107C288.539 34.265 288.639 34.198 288.724 34.1135C288.808 34.029 288.875 33.9287 288.921 33.8183C288.967 33.7079 288.99 33.5895 288.99 33.47V30.77C288.99 24.77 286.38 21.61 280.43 21.61C274.48 21.61 271.88 24.75 271.88 30.77V33.47C271.88 33.5895 271.904 33.7079 271.949 33.8183C271.995 33.9287 272.062 34.029 272.147 34.1135C272.231 34.198 272.331 34.265 272.442 34.3107C272.552 34.3565 272.671 34.38 272.79 34.38H288.08Z" fill="#003B4D"/>
<path d="M119.05 76.87C118.54 76.5963 118.115 76.1882 117.82 75.69C117.531 75.17 117.379 74.5849 117.379 73.99C117.379 73.3951 117.531 72.81 117.82 72.29C118.115 71.7917 118.54 71.3836 119.05 71.11C119.59 70.8163 120.195 70.6649 120.81 70.67C121.286 70.6654 121.758 70.7538 122.2 70.93C122.612 71.0946 122.982 71.3511 123.28 71.68L122.67 72.27C122.439 72.0198 122.157 71.8217 121.843 71.6889C121.529 71.5562 121.191 71.4918 120.85 71.5C120.393 71.4954 119.943 71.6054 119.54 71.82C119.158 72.0387 118.84 72.3546 118.619 72.7357C118.398 73.1167 118.281 73.5494 118.281 73.99C118.281 74.4305 118.398 74.8632 118.619 75.2443C118.84 75.6253 119.158 75.9412 119.54 76.16C119.943 76.3745 120.393 76.4845 120.85 76.48C121.191 76.4863 121.53 76.42 121.844 76.2855C122.158 76.1511 122.439 75.9515 122.67 75.7L123.28 76.29C122.979 76.6186 122.611 76.878 122.2 77.05C121.754 77.2218 121.278 77.3067 120.8 77.3C120.189 77.3095 119.587 77.1614 119.05 76.87Z" fill="#003B4D"/>
<path d="M130.23 76.43V77.23H125.53V70.75H130.1V71.55H126.45V73.55H129.7V74.33H126.45V76.43H130.23Z" fill="#003B4D"/>
<path d="M138.23 70.75V77.23H137.47L133.58 72.4V77.23H132.66V70.75H133.42L137.3 75.58V70.75H138.23Z" fill="#003B4D"/>
<path d="M142.39 71.55H140.17V70.75H145.53V71.55H143.3V77.23H142.39V71.55Z" fill="#003B4D"/>
<path d="M151.8 77.23L150.4 75.23H149.99H148.39V77.23H147.46V70.75H150C150.717 70.704 151.427 70.9169 152 71.35C152.242 71.5506 152.433 71.8055 152.558 72.0939C152.684 72.3823 152.739 72.6962 152.72 73.01C152.734 73.4649 152.604 73.9127 152.35 74.29C152.107 74.6441 151.756 74.9106 151.35 75.05L152.89 77.23H151.8ZM151.31 74.09C151.455 73.95 151.571 73.7823 151.649 73.5967C151.728 73.4112 151.769 73.2116 151.769 73.01C151.769 72.8084 151.728 72.6088 151.649 72.4232C151.571 72.2377 151.455 72.0699 151.31 71.93C150.916 71.6531 150.44 71.519 149.96 71.55H148.39V74.47H150C150.467 74.4918 150.927 74.3582 151.31 74.09Z" fill="#003B4D"/>
<path d="M156.28 76.87C155.748 76.6048 155.303 76.1916 155 75.68C154.705 75.1655 154.55 74.5829 154.55 73.99C154.55 73.3971 154.705 72.8145 155 72.3C155.293 71.7941 155.723 71.3814 156.24 71.11C156.782 70.8126 157.392 70.6609 158.01 70.67C158.625 70.6649 159.23 70.8163 159.77 71.11C160.28 71.3837 160.705 71.7918 161 72.29C161.289 72.81 161.441 73.3951 161.441 73.99C161.441 74.5849 161.289 75.17 161 75.69C160.705 76.1883 160.28 76.5963 159.77 76.87C159.229 77.1606 158.624 77.3086 158.01 77.3C157.406 77.3053 156.811 77.1573 156.28 76.87ZM159.33 76.16C159.705 75.9453 160.015 75.6346 160.23 75.26C160.446 74.8717 160.56 74.4345 160.56 73.99C160.56 73.5455 160.446 73.1083 160.23 72.72C160.015 72.3454 159.705 72.0347 159.33 71.82C158.938 71.6055 158.497 71.4953 158.05 71.5C157.597 71.4954 157.15 71.6055 156.75 71.82C156.375 72.0347 156.065 72.3454 155.85 72.72C155.634 73.1083 155.52 73.5455 155.52 73.99C155.52 74.4345 155.634 74.8717 155.85 75.26C156.065 75.6346 156.375 75.9453 156.75 76.16C157.15 76.3745 157.597 76.4846 158.05 76.48C158.497 76.4847 158.938 76.3745 159.33 76.16Z" fill="#003B4D"/>
<path d="M167.24 70.75H168.17V77.23H167.24V70.75Z" fill="#003B4D"/>
<path d="M176.61 70.75V77.23H175.85L172 72.4V77.23H171V70.75H171.76L175.65 75.58V70.75H176.61Z" fill="#003B4D"/>
<path d="M180.77 71.55H178.55V70.75H183.91V71.55H181.69V77.23H180.77V71.55Z" fill="#003B4D"/>
<path d="M190.55 76.43V77.23H185.84V70.75H190.42V71.55H186.77V73.55H190V74.33H186.75V76.43H190.55Z" fill="#003B4D"/>
<path d="M197.44 74H198.33V76.53C197.995 76.8028 197.612 77.0098 197.2 77.14C196.771 77.2809 196.322 77.3518 195.87 77.35C195.253 77.3598 194.644 77.2118 194.1 76.92C193.59 76.6463 193.165 76.2382 192.87 75.74C192.575 75.2218 192.421 74.636 192.421 74.04C192.421 73.4439 192.575 72.8581 192.87 72.34C193.162 71.834 193.592 71.4214 194.11 71.15C194.6 70.8993 195.137 70.7546 195.687 70.7253C196.236 70.696 196.786 70.7828 197.3 70.98C197.71 71.1441 198.079 71.3968 198.38 71.72L197.81 72.3C197.562 72.0565 197.268 71.8649 196.945 71.7361C196.623 71.6073 196.277 71.5441 195.93 71.55C195.467 71.5429 195.009 71.653 194.6 71.87C194.216 72.0745 193.897 72.3829 193.68 72.76C193.51 73.0461 193.4 73.3631 193.354 73.6924C193.309 74.0218 193.33 74.3569 193.415 74.6782C193.501 74.9995 193.65 75.3004 193.853 75.5634C194.057 75.8265 194.311 76.0463 194.6 76.21C195.043 76.4365 195.536 76.5463 196.033 76.5288C196.53 76.5113 197.014 76.3671 197.44 76.11V74Z" fill="#003B4D"/>
<path d="M205.35 77.23L203.96 75.23H203.55H202V77.23H201V70.75H203.53C204.247 70.704 204.957 70.9169 205.53 71.35C205.772 71.5506 205.963 71.8055 206.088 72.0939C206.214 72.3823 206.269 72.6962 206.25 73.01C206.264 73.4649 206.135 73.9127 205.88 74.29C205.632 74.639 205.283 74.904 204.88 75.05L206.41 77.23H205.35ZM204.86 74.09C205.008 73.9515 205.126 73.7843 205.206 73.5985C205.287 73.4127 205.328 73.2124 205.328 73.01C205.328 72.8075 205.287 72.6072 205.206 72.4214C205.126 72.2357 205.008 72.0684 204.86 71.93C204.47 71.6531 203.997 71.5189 203.52 71.55H202V74.47H203.57C204.03 74.4896 204.484 74.356 204.86 74.09Z" fill="#003B4D"/>
<path d="M212.81 75.61H209.36L208.65 77.23H207.65L210.58 70.75H211.5L214.44 77.23H213.44L212.81 75.61ZM212.48 74.87L211.08 71.69L209.69 74.87H212.48Z" fill="#003B4D"/>
<path d="M216.38 70.75H219.11C219.744 70.7341 220.373 70.875 220.94 71.16C221.45 71.4153 221.877 71.8108 222.17 72.3C222.458 72.8167 222.609 73.3984 222.609 73.99C222.609 74.5816 222.458 75.1633 222.17 75.68C221.877 76.1692 221.45 76.5646 220.94 76.82C220.371 77.0997 219.744 77.2403 219.11 77.23H216.38V70.75ZM219.06 76.43C219.538 76.4381 220.011 76.3318 220.44 76.12C220.826 75.9326 221.147 75.6328 221.36 75.26C221.576 74.8716 221.69 74.4345 221.69 73.99C221.69 73.5455 221.576 73.1083 221.36 72.72C221.147 72.3471 220.826 72.0474 220.44 71.86C220.011 71.6481 219.538 71.5419 219.06 71.55H217.31V76.43H219.06Z" fill="#003B4D"/>
<path d="M226.11 76.87C225.597 76.5953 225.171 76.1833 224.88 75.68C224.585 75.1655 224.43 74.5829 224.43 73.99C224.43 73.3971 224.585 72.8145 224.88 72.3C225.171 71.7968 225.597 71.3847 226.11 71.11C226.653 70.8151 227.262 70.6637 227.88 70.67C228.495 70.6622 229.101 70.8138 229.64 71.11C230.155 71.3762 230.583 71.786 230.87 72.29C231.164 72.8082 231.319 73.394 231.319 73.99C231.319 74.5861 231.164 75.1719 230.87 75.69C230.583 76.194 230.155 76.6039 229.64 76.87C229.1 77.1627 228.494 77.3109 227.88 77.3C227.263 77.3099 226.654 77.1619 226.11 76.87ZM229.11 76.16C229.485 75.9453 229.795 75.6347 230.01 75.26C230.226 74.8717 230.34 74.4345 230.34 73.99C230.34 73.5455 230.226 73.1084 230.01 72.72C229.795 72.3454 229.485 72.0347 229.11 71.82C228.718 71.6046 228.277 71.4944 227.83 71.5C227.38 71.4967 226.936 71.6067 226.54 71.82C226.16 72.0313 225.845 72.3426 225.63 72.72C225.414 73.1084 225.3 73.5455 225.3 73.99C225.3 74.4345 225.414 74.8717 225.63 75.26C225.845 75.6375 226.16 75.9487 226.54 76.16C226.936 76.3733 227.38 76.4834 227.83 76.48C228.294 76.4945 228.753 76.384 229.16 76.16H229.11Z" fill="#003B4D"/>
<path d="M117.91 81.86H120.64C121.271 81.8513 121.894 81.9918 122.46 82.27C122.974 82.5238 123.404 82.9194 123.7 83.41C123.988 83.9267 124.139 84.5084 124.139 85.1C124.139 85.6916 123.988 86.2733 123.7 86.79C123.404 87.2806 122.974 87.6762 122.46 87.93C121.896 88.2142 121.271 88.355 120.64 88.34H117.91V81.86ZM120.58 87.54C121.061 87.5474 121.538 87.4412 121.97 87.23C122.352 87.0368 122.671 86.7384 122.89 86.37C123.108 85.9828 123.219 85.5443 123.21 85.1C123.217 84.6559 123.107 84.2177 122.89 83.83C122.673 83.4788 122.366 83.1921 122 83C121.567 82.7922 121.09 82.6895 120.61 82.7H118.86V87.57L120.58 87.54Z" fill="#003B4D"/>
<path d="M131.18 87.54V88.34H126.48V81.86H131.05V82.67H127.41V84.67H130.66V85.45H127.41V87.55L131.18 87.54Z" fill="#003B4D"/>
<path d="M141.52 85.06H142.41V87.59C142.079 87.8626 141.699 88.0696 141.29 88.2C140.859 88.3492 140.406 88.4236 139.95 88.42C139.334 88.4247 138.726 88.277 138.18 87.99C137.417 87.5362 136.864 86.7986 136.643 85.9385C136.422 85.0784 136.55 84.1657 137 83.4C137.295 82.8964 137.725 82.4845 138.24 82.21C138.732 81.964 139.268 81.822 139.817 81.7927C140.366 81.7635 140.915 81.8476 141.43 82.04C141.845 82.1997 142.215 82.4569 142.51 82.79L141.94 83.36C141.692 83.1166 141.398 82.9249 141.075 82.7961C140.753 82.6674 140.407 82.6041 140.06 82.61C139.597 82.6029 139.139 82.713 138.73 82.93C138.346 83.1345 138.027 83.4429 137.81 83.82C137.588 84.2097 137.474 84.6516 137.48 85.1C137.474 85.5453 137.588 85.984 137.81 86.37C138.029 86.7478 138.347 87.0589 138.73 87.27C139.136 87.4857 139.59 87.5958 140.05 87.59C140.585 87.6009 141.113 87.4587 141.57 87.18L141.52 85.06Z" fill="#003B4D"/>
<path d="M149.81 87.54V88.34H145.1V81.86H149.68V82.67H146V84.67H149.25V85.45H146V87.55L149.81 87.54Z" fill="#003B4D"/>
<path d="M152.71 88.19C152.315 88.073 151.95 87.8717 151.64 87.6L151.98 86.88C152.274 87.1244 152.614 87.308 152.98 87.42C153.361 87.5591 153.764 87.6301 154.17 87.63C154.588 87.66 155.005 87.5661 155.37 87.36C155.494 87.2828 155.595 87.1752 155.665 87.0473C155.736 86.9195 155.772 86.7758 155.77 86.63C155.774 86.5295 155.757 86.4292 155.719 86.336C155.681 86.2428 155.623 86.1589 155.55 86.09C155.401 85.9437 155.219 85.8342 155.02 85.77C154.722 85.6694 154.418 85.5859 154.11 85.52C153.711 85.4236 153.317 85.3068 152.93 85.17C152.634 85.0535 152.373 84.8643 152.17 84.62C151.938 84.3408 151.823 83.9822 151.85 83.62C151.845 83.2869 151.939 82.9599 152.12 82.68C152.327 82.3845 152.615 82.1553 152.95 82.02C153.387 81.8391 153.857 81.7538 154.33 81.77C154.711 81.7716 155.09 81.8186 155.46 81.91C155.816 81.9928 156.155 82.1384 156.46 82.34L156.16 83.08C155.885 82.9116 155.589 82.7805 155.28 82.69C154.988 82.6004 154.685 82.5533 154.38 82.55C153.966 82.522 153.554 82.6233 153.2 82.84C153.076 82.9195 152.975 83.029 152.905 83.1585C152.835 83.2879 152.799 83.4329 152.8 83.58C152.798 83.6812 152.817 83.7818 152.857 83.8749C152.896 83.968 152.955 84.0516 153.03 84.12C153.187 84.2684 153.375 84.381 153.58 84.45C153.872 84.5457 154.169 84.6258 154.47 84.69C154.869 84.785 155.263 84.9019 155.65 85.04C155.942 85.1576 156.203 85.3427 156.41 85.58C156.639 85.8612 156.753 86.2183 156.73 86.58C156.734 86.9114 156.636 87.2359 156.45 87.51C156.248 87.8164 155.954 88.0509 155.61 88.18C155.168 88.3553 154.695 88.4403 154.22 88.43C153.707 88.4381 153.196 88.3569 152.71 88.19Z" fill="#003B4D"/>
<path d="M160.1 82.67H157.88V81.86H163.24V82.67H161V88.34H160.08L160.1 82.67Z" fill="#003B4D"/>
<path d="M169 86.72H165.56L164.84 88.34H163.89L166.83 81.86H167.74L170.69 88.34H169.69L169 86.72ZM167.55 81.21C167.409 81.1288 167.275 81.0351 167.15 80.93C167.076 80.8593 166.996 80.7957 166.91 80.74C166.85 80.703 166.781 80.6824 166.71 80.68C166.645 80.6799 166.581 80.6942 166.522 80.7218C166.463 80.7495 166.411 80.7898 166.37 80.84C166.28 80.9618 166.231 81.1087 166.23 81.26H165.73C165.729 80.9615 165.823 80.6705 166 80.43C166.075 80.3325 166.172 80.2544 166.284 80.2022C166.395 80.15 166.517 80.1252 166.64 80.13C166.777 80.125 166.912 80.1597 167.03 80.23C167.172 80.3099 167.306 80.4037 167.43 80.51L167.68 80.7C167.736 80.7391 167.802 80.76 167.87 80.76C167.934 80.762 167.998 80.7496 168.057 80.7236C168.116 80.6976 168.168 80.6588 168.21 80.61C168.3 80.4928 168.346 80.3477 168.34 80.2H168.84C168.844 80.4881 168.753 80.7695 168.58 81C168.504 81.0962 168.407 81.1735 168.295 81.2255C168.184 81.2776 168.063 81.3031 167.94 81.3C167.798 81.307 167.656 81.2759 167.53 81.21H167.55ZM168.66 86L167.26 82.82L165.86 86H168.66Z" fill="#003B4D"/>
<path d="M173.62 88C173.109 87.7198 172.681 87.3092 172.38 86.81C172.087 86.2918 171.935 85.7055 171.94 85.11C171.934 84.5176 172.086 83.9342 172.38 83.42C172.675 82.9161 173.104 82.5041 173.62 82.23C174.166 81.9477 174.771 81.8004 175.385 81.8004C175.999 81.8004 176.604 81.9477 177.15 82.23C177.66 82.5037 178.085 82.9118 178.38 83.41C178.607 83.7904 178.756 84.2126 178.817 84.6515C178.878 85.0905 178.851 85.5372 178.736 85.9653C178.621 86.3934 178.422 86.794 178.15 87.1436C177.877 87.4931 177.537 87.7843 177.15 88C176.604 88.2823 175.999 88.4297 175.385 88.4297C174.771 88.4297 174.166 88.2823 173.62 88ZM176.62 87.28C176.995 87.0653 177.305 86.7547 177.52 86.38C177.736 85.9917 177.85 85.5545 177.85 85.11C177.85 84.6655 177.736 84.2284 177.52 83.84C177.305 83.4654 176.995 83.1547 176.62 82.94C176.224 82.7299 175.783 82.62 175.335 82.62C174.887 82.62 174.446 82.7299 174.05 82.94C173.67 83.1513 173.355 83.4626 173.14 83.84C172.924 84.2284 172.81 84.6655 172.81 85.11C172.81 85.5545 172.924 85.9917 173.14 86.38C173.355 86.7575 173.67 87.0687 174.05 87.28C174.446 87.4901 174.887 87.6 175.335 87.6C175.783 87.6 176.224 87.4901 176.62 87.28Z" fill="#003B4D"/>
<path d="M188.71 86.72H185.27L184.56 88.34H183.56L186.5 81.86H187.41L190.41 88.34H189.41L188.71 86.72ZM188.39 85.98L187 82.8L185.59 86L188.39 85.98Z" fill="#003B4D"/>
<path d="M198.3 88.34V83.62L196 87.56H195.57L193.23 83.65V88.34H192.34V81.86H193.1L195.8 86.42L198.47 81.86H199.23V88.34H198.3Z" fill="#003B4D"/>
<path d="M207.31 85.55C207.521 85.8403 207.634 86.191 207.63 86.55C207.642 86.8021 207.591 87.0531 207.481 87.2802C207.371 87.5073 207.205 87.7032 207 87.85C206.443 88.1842 205.798 88.3412 205.15 88.3H202.06V81.86H205C205.605 81.8239 206.207 81.9778 206.72 82.3C206.918 82.439 207.077 82.6254 207.184 82.8421C207.29 83.0588 207.341 83.2988 207.33 83.54C207.338 83.8505 207.254 84.1564 207.09 84.42C206.933 84.659 206.716 84.8522 206.46 84.98C206.793 85.0822 207.089 85.2805 207.31 85.55ZM203 82.61V84.68H204.9C205.285 84.7069 205.668 84.6163 206 84.42C206.123 84.3341 206.223 84.2185 206.289 84.0839C206.356 83.9492 206.387 83.8 206.38 83.65C206.387 83.4986 206.355 83.348 206.289 83.2118C206.223 83.0756 206.123 82.9581 206 82.87C205.666 82.6794 205.284 82.5891 204.9 82.61H203ZM206.32 87.33C206.452 87.2422 206.559 87.1211 206.629 86.9788C206.699 86.8366 206.731 86.6783 206.72 86.52C206.72 85.8 206.19 85.43 205.13 85.43H203V87.59H205.13C205.537 87.6166 205.943 87.5264 206.3 87.33H206.32Z" fill="#003B4D"/>
<path d="M210 81.86H210.93V88.34H210V81.86Z" fill="#003B4D"/>
<path d="M218.49 87.54V88.34H213.79V81.86H218.36V82.67H214.71V84.67H218V85.45H214.75V87.55L218.49 87.54Z" fill="#003B4D"/>
<path d="M226.49 81.86V88.34H225.73L221.84 83.51V88.34H220.92V81.86H221.68L225.57 86.69V81.86H226.49Z" fill="#003B4D"/>
<path d="M230.65 82.67H228.43V81.86H233.79V82.67H231.57V88.34H230.65V82.67Z" fill="#003B4D"/>
<path d="M239.53 86.72H236.09L235.37 88.34H234.37L237.3 81.86H238.22L241.17 88.34H240.17L239.53 86.72ZM239.21 85.98L237.81 82.8L236.41 86L239.21 85.98Z" fill="#003B4D"/>
<path d="M243.1 81.86H244V87.54H247.51V88.34H243.1V81.86Z" fill="#003B4D"/>
<path d="M37.6899 22.59C37.8812 21.6481 38.2628 20.7551 38.8113 19.9659C39.3599 19.1766 40.0638 18.5076 40.8799 18L41.0699 17.89C42.136 17.2814 43.3424 16.9614 44.5699 16.9614C45.7975 16.9614 47.0038 17.2814 48.0699 17.89L48.2799 18.01C49.2639 18.6181 50.079 19.4641 50.6499 20.47C51.0454 21.1339 51.3228 21.8614 51.4699 22.62L37.6899 22.59Z" fill="#F0D283"/>
<path d="M54.12 22.59C54.0077 21.8042 53.7995 21.0351 53.5 20.3L67.91 12L84.59 21.64C84.82 21.77 85.04 21.91 85.26 22.06H66.12C65.1502 22.0606 64.1895 22.2473 63.29 22.61L54.12 22.59Z" fill="#A1D683"/>
<path d="M52.16 18C51.6702 17.3803 51.1097 16.8198 50.49 16.33L56.72 5.52002L65.24 10.44L52.16 18Z" fill="#A2D9E7"/>
<path d="M48.19 15C47.4512 14.7055 46.6786 14.5039 45.89 14.4V0C47.0082 0.156995 48.085 0.530642 49.06 1.1L54.41 4.19L48.19 15Z" fill="#A2D9E7"/>
<path d="M34.7 4.19L40 1.1C40.9907 0.52568 42.0849 0.151915 43.22 0V14.37C42.4314 14.4739 41.6588 14.6755 40.9199 14.97L34.7 4.19Z" fill="#A2D9E7"/>
<path d="M23.86 10.44L32.38 5.52002L38.61 16.32C37.9849 16.8076 37.4238 17.3721 36.94 18L23.86 10.44Z" fill="#A2D9E7"/>
<path d="M3.14001 22.59C3.56491 22.2152 4.02353 21.8804 4.51001 21.59L21.2 12L21.67 12.28L35.59 20.28C35.299 21.0228 35.1008 21.7986 35 22.59H3.14001Z" fill="#A1D683"/>
<path d="M0.74 74C0.260784 72.8808 0.00922626 71.6774 0 70.46L0 63.57L0.58 63.26C2.75615 61.8979 5.28339 61.2027 7.85 61.26C10.4172 61.198 12.9458 61.8936 15.12 63.26C16.5959 64.1318 18.1934 64.7789 19.86 65.18L17.37 67.69L12.1 72.94C11.3593 73.572 10.4321 73.9443 9.46 74H0.74Z" fill="#5FD0DF"/>
<path d="M16.67 85.3L4.51004 78.3C4.27004 78.15 4.02004 78 3.79004 77.83H9.46004C11.3905 77.7686 13.2366 77.0245 14.67 75.73L14.74 75.66L14.84 75.54L14.75 75.65L20 70.36L23.06 67.29L43 47.38L50.43 39.94L63.43 26.94C63.7769 26.5938 64.1886 26.3193 64.6416 26.1323C65.0946 25.9453 65.58 25.8493 66.07 25.85H88.35C88.8499 26.9879 89.1087 28.2171 89.11 29.46V33.3H84C82.1562 33.3056 80.378 33.9849 79 35.21C79 35.21 78.91 35.29 69.09 45.12L57.78 56.39L30 84.2C29.2968 84.9025 28.344 85.298 27.35 85.3H16.67Z" fill="#D9D8D6"/>
<path d="M22.21 62.83C20.1482 62.6614 18.1563 62.0032 16.4 60.91C13.8306 59.3368 10.8619 58.5382 7.85 58.61C5.10693 58.5315 2.39394 59.1985 0 60.54L0 49.09L0.59 48.78C2.76234 47.4177 5.28649 46.7223 7.85 46.78C10.4166 46.7227 12.9438 47.418 15.12 48.78C17.6846 50.3569 20.6502 51.1591 23.66 51.09C26.67 51.1608 29.6361 50.3585 32.2 48.78C34.0105 47.6507 36.0711 46.9844 38.2 46.84L28.25 56.78C26.13 58.93 24.09 61 22.21 62.83Z" fill="#5FD0DF"/>
<path d="M23.66 48.41C21.0965 48.4677 18.5723 47.7723 16.4 46.41C13.831 44.8358 10.862 44.0371 7.85 44.11C5.10475 44.0346 2.39084 44.7087 0 46.06L0 34.62L0.59 34.3C2.76423 32.942 5.28707 32.247 7.85 32.3C10.4166 32.2427 12.9438 32.938 15.12 34.3C17.6845 35.8761 20.6509 36.675 23.66 36.6C26.6683 36.6676 29.6326 35.8692 32.2 34.3C34.3769 32.9396 36.9036 32.2445 39.47 32.3C42.0333 32.2441 44.5569 32.9393 46.73 34.3C47.6045 34.794 48.5097 35.2316 49.44 35.61L40.88 44.17C40.46 44.17 39.99 44.17 39.47 44.17C36.4609 44.0951 33.4945 44.894 30.93 46.47C28.7462 47.8083 26.2202 48.4824 23.66 48.41Z" fill="#5FD0DF"/>
<path d="M23.66 33.94C21.0965 33.9977 18.5724 33.3023 16.4 31.94C13.8331 30.3602 10.8634 29.5578 7.85004 29.63C5.10358 29.555 2.38893 30.2328 4.15187e-05 31.59V29.43C-0.00434271 27.9801 0.338552 26.5502 1.00004 25.26H59.79L51.56 33.5C50.3164 33.1478 49.1208 32.644 48 32C45.4362 30.4215 42.47 29.6192 39.46 29.69C36.4537 29.6234 33.492 30.4255 30.93 32C28.7481 33.3426 26.2208 34.017 23.66 33.94Z" fill="#5FD0DF"/>
<path d="M74.39 45.12L81.49 38C82.1672 37.3693 83.0547 37.0129 83.98 37H89.11V45L74.39 45.12Z" fill="#DEA36D"/>
<path d="M63.13 56.39L71.73 47.8H89.11V56.39H63.13Z" fill="#DEA36D"/>
<path d="M51.87 67.65C53.57 65.94 60.46 59.06 60.46 59.06H89.11V67.65H51.87Z" fill="#DEA36D"/>
<path d="M40.6 78.91L49.2 70.32H89.11V70.46C89.1125 72.0462 88.6958 73.6048 87.902 74.9781C87.1083 76.3514 85.9657 77.4905 84.59 78.28L83.48 78.91H40.6Z" fill="#DEA36D"/>
<path d="M25.12 90.18L23.21 89.07H27.33C29.323 89.0718 31.2358 88.2845 32.65 86.88L37.93 81.58H78.86L64 90.18H25.12Z" fill="#DEA36D"/>
<path d="M44.55 100C42.9528 100.008 41.3824 99.5899 40 98.79L29.75 92.85H59.36L49.06 98.79C47.6893 99.5831 46.1336 100 44.55 100Z" fill="#DEA36D"/>
</g>
<defs>
<clipPath id="clip0_202_1388">
<rect width="299.82" height="100" fill="white"/>
</clipPath>
</defs>
</svg>
